<svg id="Layer_1" data-name="Layer 1" xmlns="http://www.w3.org/2000/svg" viewBox="0 0 140.53 144.07"><defs><style>.cls-1{fill:#00338d;}.cls-2{fill:#fff;}</style></defs><title>don_confiance</title><path class="cls-1" d="M154.7,80A64.7,64.7,0,1,1,90,15.3,64.7,64.7,0,0,1,154.7,80" transform="translate(-17.95 -7.96)"/><path class="cls-1" d="M96.15,151.76a72,72,0,1,1,29-134.6c5.73,3.21,5.27,3.39,5.16,3.87a0.56,0.56,0,0,1-.5.44c-0.39,0-.52-0.34-5.42-2.92a69.7,69.7,0,0,0-38.68-7.87,70.92,70.92,0,0,0-17.51,3.8A69.69,69.69,0,0,0,28.48,50a68.32,68.32,0,0,0-2.94,52.88,69.24,69.24,0,0,0,71.34,45.63h0a70.39,70.39,0,0,0,58.45-42c2.19-5.06,2.11-5.14,2.52-5.17a0.56,0.56,0,0,1,.49.22c0.22,0.3.47,0.33-1.65,5.52a72.15,72.15,0,0,1-60.55,44.61h0" transform="translate(-17.95 -7.96)"/><path class="cls-2" d="M60.48,41.14l3.66-.81a9.43,9.43,0,0,1,2.9-.25,4.57,4.57,0,0,1,2.17.85,8.17,8.17,0,0,1,2.57,3.18,27.63,27.63,0,0,1,1.88,6,25.31,25.31,0,0,1,.73,6.08A6.69,6.69,0,0,1,73.25,60q-1.29,1.8-5.47,2.73l-2.4.53-4.9-22.08M67.78,60q2.72-.6,3.27-2.45t-0.47-6.6q-1.14-5.1-2.46-6.82a3.4,3.4,0,0,0-3.73-1.19L64,43Z" transform="translate(-17.95 -7.96)"/><path class="cls-2" d="M88.7,47q1.3,5.85.54,8.6a4.65,4.65,0,0,1-3.81,3.43,4.77,4.77,0,0,1-5.12-1.64q-1.87-2.3-3.34-8.91-1.3-5.89-.56-8.62a4.69,4.69,0,0,1,3.86-3.44,4.82,4.82,0,0,1,4.54,1,9.29,9.29,0,0,1,2.09,3.33A38.7,38.7,0,0,1,88.7,47m-3,1a36.27,36.27,0,0,0-2.2-7.49,2.19,2.19,0,0,0-2.52-1.42,2.15,2.15,0,0,0-1.74,2.2,31,31,0,0,0,1,7.12,28.79,28.79,0,0,0,2,6.6,2.19,2.19,0,0,0,2.48,1.31,2.14,2.14,0,0,0,1.69-2.12A22.33,22.33,0,0,0,85.65,48Z" transform="translate(-17.95 -7.96)"/><path class="cls-2" d="M90,34.59L92.82,34l4.91,8.15a82.45,82.45,0,0,1,4,7.46q-0.92-2.48-1.56-4.52t-1-3.87L97.35,33l3-.66,4.9,22.08-2.78.62-5.53-9.2q-0.77-1.28-1.5-2.65c-0.49-.91-1.81-3.75-1.93-4,0.09,0.24,1,3.27,1,3.27s0.86,3,.92,3.24S97.89,56,97.89,56l-2.95.65L90,34.59" transform="translate(-17.95 -7.96)"/><path class="cls-2" d="M84.36,71.66l2.15-.48q0.64,4.08-2.74,4.82A4.09,4.09,0,0,1,82,76a3,3,0,0,1-1.43-.79,5.33,5.33,0,0,1-1.1-1.66,13.84,13.84,0,0,1-.8-2.57,8.68,8.68,0,0,1-.07-4.68,3.24,3.24,0,0,1,2.54-2.09q3.76-.84,5.1,5.2l0.06,0.26L81,70.89q0.81,3.65,2.41,3.3t1-2.54m-0.78-2.93a7.25,7.25,0,0,0-1-2.26,1.09,1.09,0,0,0-1.16-.4,1.07,1.07,0,0,0-.87.85,7.21,7.21,0,0,0,.07,2.46Z" transform="translate(-17.95 -7.96)"/><path class="cls-2" d="M87.8,63l2.32-.51,0.29,1.31a3.05,3.05,0,0,1,2.23-2.07,2.4,2.4,0,0,1,2.42.6,5.42,5.42,0,0,1,.9,2.31l1.79,8.1-2.31.51-1.7-7.61a3.37,3.37,0,0,0-.67-1.57,1.16,1.16,0,0,0-1.15-.25,1.66,1.66,0,0,0-.64.27,1.05,1.05,0,0,0-.35.51,2.1,2.1,0,0,0-.09.79A7.16,7.16,0,0,0,91,66.49l1.63,7.36-2.31.51L87.8,63" transform="translate(-17.95 -7.96)"/><path class="cls-2" d="M45.06,89.51l0.59,2.68a4.72,4.72,0,0,0-2-.14,3.18,3.18,0,0,0-1.7.93A3.87,3.87,0,0,0,41,94.86a10.32,10.32,0,0,0-.12,2.91,29.49,29.49,0,0,0,.64,4q1.81,8.18,6,7.25a4.57,4.57,0,0,0,1.66-.85l0.6,2.73A5,5,0,0,1,47.53,112q-6.71,1.49-9.14-9.46-1.31-5.92-.32-9.17a5.52,5.52,0,0,1,4.37-4,5.26,5.26,0,0,1,2.6.11" transform="translate(-17.95 -7.96)"/><path class="cls-2" d="M61.9,97.55q1.3,5.85.54,8.6a4.64,4.64,0,0,1-3.82,3.42,4.76,4.76,0,0,1-5.12-1.64q-1.87-2.3-3.34-8.91-1.3-5.89-.56-8.62A4.68,4.68,0,0,1,53.46,87,4.83,4.83,0,0,1,58,88a9.27,9.27,0,0,1,2.09,3.33,37.94,37.94,0,0,1,1.81,6.26m-3,1a36.2,36.2,0,0,0-2.2-7.49,2.19,2.19,0,0,0-2.52-1.42,2.16,2.16,0,0,0-1.73,2.2,31,31,0,0,0,1,7.12,28.74,28.74,0,0,0,2,6.6,2.19,2.19,0,0,0,2.48,1.31,2.14,2.14,0,0,0,1.69-2.11A22.52,22.52,0,0,0,58.85,98.56Z" transform="translate(-17.95 -7.96)"/><path class="cls-2" d="M63.24,85.1L66,84.49l4.91,8.15a81.88,81.88,0,0,1,4,7.46c-0.61-1.65-1.14-3.16-1.56-4.51s-0.77-2.65-1-3.86l-1.82-8.24,3-.66,4.89,22.08-2.78.62-5.53-9.2q-0.77-1.28-1.5-2.65c-0.48-.91-1.81-3.75-1.92-4,0.08,0.24,1,3.27,1,3.27s0.86,3,.92,3.25l2.46,10.33-2.94.65L63.24,85.1" transform="translate(-17.95 -7.96)"/><path class="cls-2" d="M109.5,74.85l2.77-.61,4.91,8.15a82.87,82.87,0,0,1,4,7.46q-0.93-2.48-1.56-4.51t-1-3.86l-1.82-8.24,3-.66,4.9,22.07-2.78.62-5.53-9.2c-0.51-.86-1-1.74-1.5-2.65s-1.81-3.75-1.92-4c0.08,0.24,1,3.27,1,3.27s0.86,3,.92,3.25l2.46,10.33-2.94.65-4.9-22.08" transform="translate(-17.95 -7.96)"/><polyline class="cls-2" points="60.09 73.86 68.04 72.09 68.6 74.61 63.62 75.72 65.17 82.69 69.66 81.7 70.22 84.22 65.73 85.21 67.96 95.27 64.99 95.94 60.09 73.86"/><polyline class="cls-2" points="71.29 71.37 74.27 70.72 79.16 92.79 76.19 93.45 71.29 71.37"/><path class="cls-2" d="M99.73,77l2.32-.51,9.63,21-2.95.65-1.78-4.12-4.37,1,0.11,4.49-2.86.64L99.73,77M106,91.85l-1.44-3.37q-1.45-3.44-2.77-7.43,0.24,2,.38,4.14c0.09,1.4.16,2.9,0.21,4.49l0.09,3Z" transform="translate(-17.95 -7.96)"/><path class="cls-2" d="M132.74,70.07l0.59,2.67a4.68,4.68,0,0,0-2-.13,3.21,3.21,0,0,0-1.7.92,3.86,3.86,0,0,0-.89,1.89,10.42,10.42,0,0,0-.12,2.91,29.14,29.14,0,0,0,.64,4q1.81,8.18,6,7.25a4.63,4.63,0,0,0,1.66-.85l0.6,2.73a5,5,0,0,1-2.27,1.14q-6.71,1.48-9.14-9.47-1.31-5.92-.31-9.17a5.51,5.51,0,0,1,4.37-4,5.23,5.23,0,0,1,2.61.11" transform="translate(-17.95 -7.96)"/><polyline class="cls-2" points="117.92 61.03 125.83 59.28 126.38 61.8 121.45 62.89 123 69.89 127.37 68.92 127.93 71.43 123.56 72.4 125.23 79.94 130.16 78.84 130.72 81.36 122.81 83.11 117.92 61.03"/><path class="cls-2" d="M60.62,119.31l-1,1.29a3,3,0,0,0-.15-1,1.5,1.5,0,0,0-.48-0.65,1.54,1.54,0,0,0-1.22-.35,1.73,1.73,0,0,0-1.14.67,1.76,1.76,0,0,0-.44,1.25,1.52,1.52,0,0,0,.6,1.11,1.6,1.6,0,0,0,.74.35,3.12,3.12,0,0,0,1.07-.08l-1,1.29a3.3,3.3,0,0,1-1.44-.65A2.91,2.91,0,0,1,55,120.55a2.72,2.72,0,0,1,.62-2.11,2.76,2.76,0,0,1,2-1.05,2.89,2.89,0,0,1,2.16.67,3.11,3.11,0,0,1,.94,1.25" transform="translate(-17.95 -7.96)"/><path class="cls-2" d="M60.43,122.19a2.69,2.69,0,0,1,1.76-1.27,3,3,0,0,1,3.5,2.14,2.9,2.9,0,0,1-2.13,3.48,2.87,2.87,0,0,1-2.19-.38,2.76,2.76,0,0,1-1.31-1.78,2.81,2.81,0,0,1,.38-2.19m1.08,0.69a1.82,1.82,0,0,0-.3,1.32,1.69,1.69,0,0,0,2,1.22,2,2,0,0,0,1.31-2.15,1.53,1.53,0,0,0-.75-1,1.5,1.5,0,0,0-1.24-.2A1.73,1.73,0,0,0,61.51,122.88Z" transform="translate(-17.95 -7.96)"/><path class="cls-2" d="M67.8,123.52L69,124l-0.19.46a2.59,2.59,0,0,1,.77-0.24,1.46,1.46,0,0,1,.68.13,1.67,1.67,0,0,1,1,1.29,1.87,1.87,0,0,1,1.78-.13c1.13,0.47,1.41,1.38.85,2.75l-1.28,3.1-1.16-.48,1.14-2.78a2.33,2.33,0,0,0,.24-1.09,0.69,0.69,0,0,0-.46-0.55,0.82,0.82,0,0,0-.85.07,2.47,2.47,0,0,0-.69,1.07l-1.07,2.59-1.16-.48,1.14-2.76q0.55-1.34-.22-1.65a0.83,0.83,0,0,0-.86.07,2.47,2.47,0,0,0-.7,1.06L66.9,129l-1.15-.48,2.06-5" transform="translate(-17.95 -7.96)"/><path class="cls-2" d="M77.79,127.12l-1.4,5.23L75.18,132l1.4-5.23,1.21,0.32M77,124.57a0.77,0.77,0,0,1,.38-0.49A0.78,0.78,0,0,1,78,124a0.8,0.8,0,0,1,.49.39,0.76,0.76,0,0,1,.08.61,0.79,0.79,0,0,1-.38.5,0.77,0.77,0,0,1-.62.08A0.82,0.82,0,0,1,77,124.57Z" transform="translate(-17.95 -7.96)"/><polyline class="cls-2" points="63.27 121.08 62.48 125.26 61.26 125.03 62.03 120.85 61.51 120.76 61.72 119.61 62.25 119.71 62.61 117.76 63.84 117.99 63.48 119.94 64.43 120.12 64.22 121.27 63.27 121.08"/><path class="cls-2" d="M88.6,131.68l-3.87-.29a1.64,1.64,0,0,0,.35,1.09,1.3,1.3,0,0,0,1,.46,1.25,1.25,0,0,0,.79-0.16,3.11,3.11,0,0,0,.74-0.77l1,0.67a4.46,4.46,0,0,1-.57.67,2.72,2.72,0,0,1-.62.45,2.41,2.41,0,0,1-.69.23,3.19,3.19,0,0,1-.79,0,2.56,2.56,0,0,1-1.88-.92,2.92,2.92,0,0,1-.58-2.13,3,3,0,0,1,.86-2,2.7,2.7,0,0,1,3.78.25,3,3,0,0,1,.53,2.14l0,0.29m-1.2-1.12a1.2,1.2,0,0,0-1.18-1.09,1.28,1.28,0,0,0-.43,0,1.2,1.2,0,0,0-.38.17,1.28,1.28,0,0,0-.3.29,1.42,1.42,0,0,0-.21.4Z" transform="translate(-17.95 -7.96)"/><path class="cls-2" d="M94.56,128.7l0.08,1.66a3,3,0,0,0-.8-0.68,1.48,1.48,0,0,0-.79-0.16,1.53,1.53,0,0,0-1.15.55,1.73,1.73,0,0,0-.41,1.26,1.77,1.77,0,0,0,.51,1.23,1.52,1.52,0,0,0,1.18.43,1.63,1.63,0,0,0,.79-0.23,3.16,3.16,0,0,0,.75-0.77l0.08,1.65a3.32,3.32,0,0,1-1.5.47,2.93,2.93,0,0,1-2.14-.71,2.72,2.72,0,0,1-.94-2,2.74,2.74,0,0,1,.75-2.09,2.9,2.9,0,0,1,2.06-.94,3.16,3.16,0,0,1,1.53.31" transform="translate(-17.95 -7.96)"/><path class="cls-2" d="M95.69,124.34l1.23-.22,0.8,4.35a2.14,2.14,0,0,1,1.34-.86,1.9,1.9,0,0,1,1.55.32,2.42,2.42,0,0,1,.76,1.54l0.6,3.26-1.23.23-0.58-3.15a1.52,1.52,0,0,0-.4-0.88,0.88,0.88,0,0,0-.78-0.15,1,1,0,0,0-.83.57,2.78,2.78,0,0,0,0,1.44l0.47,2.57-1.23.23-1.69-9.24" transform="translate(-17.95 -7.96)"/><path class="cls-2" d="M106.46,125.77l1.19-.39,1.68,5.15-1.19.39-0.18-.54a2.4,2.4,0,0,1-3.37,1,3,3,0,0,1-1.33-1.74,2.94,2.94,0,0,1,.06-2.16,2.34,2.34,0,0,1,1.48-1.33,2.28,2.28,0,0,1,1.85.21l-0.19-.6m-2,3.48a1.88,1.88,0,0,0,.79,1.08,1.37,1.37,0,0,0,1.18.14,1.43,1.43,0,0,0,.92-0.8,2.06,2.06,0,0,0-.78-2.39,1.48,1.48,0,0,0-2.08.68A1.8,1.8,0,0,0,104.47,129.25Z" transform="translate(-17.95 -7.96)"/><path class="cls-2" d="M109.65,124.51l1.13-.53,0.21,0.44a2.27,2.27,0,0,1,.34-0.71,1.4,1.4,0,0,1,.52-0.4,2,2,0,0,1,1.07-.15l0,1.28a1.18,1.18,0,0,0-.74.07q-0.92.43-.27,1.83l1.2,2.54-1.13.53-2.3-4.9" transform="translate(-17.95 -7.96)"/><polyline class="cls-2" points="97.9 114.64 100.05 118.3 98.97 118.93 96.83 115.27 96.36 115.54 95.78 114.53 96.23 114.27 95.23 112.55 96.31 111.92 97.31 113.63 98.15 113.14 98.74 114.15 97.9 114.64"/><path class="cls-2" d="M123,119.89l-3.12,2.31a1.66,1.66,0,0,0,1,.6,1.32,1.32,0,0,0,1-.27,1.27,1.27,0,0,0,.49-0.64,3.23,3.23,0,0,0,.06-1.07l1.2-.15a4.28,4.28,0,0,1,0,.88,2.83,2.83,0,0,1-.18.74,2.31,2.31,0,0,1-.37.63,3.14,3.14,0,0,1-.58.53,2.55,2.55,0,0,1-2,.54,2.93,2.93,0,0,1-1.83-1.24,3,3,0,0,1-.66-2.1,2.71,2.71,0,0,1,3-2.27,3,3,0,0,1,1.8,1.28l0.17,0.24m-1.64-.06a1.2,1.2,0,0,0-1.61-.05,1.22,1.22,0,0,0-.3.31,1.18,1.18,0,0,0-.18.38,1.27,1.27,0,0,0,0,.42,1.53,1.53,0,0,0,.1.44Z" transform="translate(-17.95 -7.96)"/><path class="cls-2" d="M126.1,119.49a0.78,0.78,0,0,1,0-1.09,0.78,0.78,0,0,1,1.09,0,0.75,0.75,0,0,1,.21.56,0.72,0.72,0,0,1-.25.53,0.75,0.75,0,0,1-.56.21,0.76,0.76,0,0,1-.54-0.26" transform="translate(-17.95 -7.96)"/><path class="cls-2" d="M127.18,115.6a2.69,2.69,0,0,1-1-1.94,3,3,0,0,1,2.69-3.1,2.9,2.9,0,0,1,3.08,2.67,2.87,2.87,0,0,1-.74,2.1,2.75,2.75,0,0,1-2,1,2.81,2.81,0,0,1-2.1-.73m0.85-1a1.82,1.82,0,0,0,1.26.51,1.68,1.68,0,0,0,1.54-1.77,2,2,0,0,0-1.91-1.65,1.67,1.67,0,0,0-1.53,1.77A1.75,1.75,0,0,0,128,114.65Z" transform="translate(-17.95 -7.96)"/><path class="cls-2" d="M129.89,108.09l0.7-1,0.4,0.27a2.37,2.37,0,0,1-.07-0.79,1.39,1.39,0,0,1,.25-0.61,2,2,0,0,1,.85-0.68l0.63,1.11a1.2,1.2,0,0,0-.6.44q-0.57.85,0.71,1.71l2.33,1.57-0.7,1-4.49-3" transform="translate(-17.95 -7.96)"/><path class="cls-2" d="M139.48,102.12c0.23,0.12.43,0.23,0.59,0.33a4.74,4.74,0,0,1,.43.3,2.28,2.28,0,0,1,.69.95,2.53,2.53,0,0,1-.18,2.18,2.67,2.67,0,0,1-1.34,1.32,2.38,2.38,0,0,1-1.86,0l0.57-1.11a1.43,1.43,0,0,0,.66.07,1.35,1.35,0,0,0,1-.77c0.42-.81.13-1.48-0.86-2l-0.67-.35a2.34,2.34,0,0,1-.11,1.88,2.31,2.31,0,0,1-1.54,1.24,3,3,0,0,1-2.13-.3,3.14,3.14,0,0,1-1.49-1.51,2.3,2.3,0,0,1,.08-2.07,2.2,2.2,0,0,1,1.46-1.16l-0.54-.28,0.57-1.11,4.7,2.43m-2.83-.11a1.81,1.81,0,0,0-1.31-.2,1.39,1.39,0,0,0-.93.75,1.34,1.34,0,0,0,0,1.24,2.17,2.17,0,0,0,2.16,1.12,1.35,1.35,0,0,0,1-.76,1.37,1.37,0,0,0,.06-1.25A1.86,1.86,0,0,0,136.65,102Z" transform="translate(-17.95 -7.96)"/></svg>
