<svg id="Calque_1" data-name="Calque 1" xmlns="http://www.w3.org/2000/svg" xmlns:xlink="http://www.w3.org/1999/xlink" viewBox="0 0 662.67 441.33"><defs><style>.cls-1{fill:none;}.cls-2{clip-path:url(#clip-path);}.cls-3{fill:url(#Dégradé_sans_nom_16);}</style><clipPath id="clip-path" transform="translate(-65.71 -129.44)"><path class="cls-1" d="M609.26,190.54H584v-24h78V190a2.37,2.37,0,0,1-.35.35c-0.12.08-17,.17-25.5,0.17V305.83a4.49,4.49,0,0,1-.49.53c-0.12.09-17,.18-25.5,0.18V191.28a4.62,4.62,0,0,0-.49-0.55A0.78,0.78,0,0,0,609.26,190.54ZM202.91,402.36H160.83V286.71H134.24V426.38h68.66v-24ZM431,340.29a0.8,0.8,0,0,0-.17-0.42,4.84,4.84,0,0,0-.56-0.51H389q0-57.71,0-115.05a0.82,0.82,0,0,0-.16-0.43c-0.09-.13-0.23-0.23-0.16-0.16H363.08V363.37H431C431,355.57,431,347.93,431,340.29ZM270.17,254.63V394.54h25.09a0.78,0.78,0,0,0,.42-0.18c0.13-.09.22-0.24,0.15-0.17V254.63H270.17Zm13-20.33L296.65,249l9.36-7-22.14-25.88-23.23,25.88,9.68,7Zm-59.92,54.52-19.18-7.11-7.28,39.07s7.1,2.17,9.82,2.88Zm394.53,40.25L642,335.79S350.67,686.87,123,421.1c-1.91,2.61-14,17.09-18,22.44C328.67,706.87,647.77,340.59,647.77,340.59l9.74,23.5L704,278.54Zm-164.6-64c0-33.5,21-69.18,54.95-69.18,33.54,0,57.85,35.68,57.86,69.18,0,32.83-25.15,72.3-57.86,72.3C474.83,337.36,453.2,297.2,453.18,265Zm22.67,0.55c0,18.88,13,44.4,32.4,44.41s35.15-25.75,35.06-44.8c0-19.85-15.44-42-35.06-42C488.86,223.18,475.84,245.34,475.85,265.59Z"/></clipPath><linearGradient id="Dégradé_sans_nom_16" y1="220.67" x2="662.67" y2="220.67" gradientUnits="userSpaceOnUse"><stop offset="0" stop-color="#98d0c3"/><stop offset="0.13" stop-color="#90cec0"/><stop offset="0.32" stop-color="#7bc8b7"/><stop offset="0.47" stop-color="#67c3af"/><stop offset="0.62" stop-color="#4fbda6"/><stop offset="0.93" stop-color="#12ad8d"/><stop offset="1" stop-color="#05aa88"/></linearGradient></defs><title>ilot_degradé</title><g class="cls-2"><rect class="cls-3" width="662.67" height="441.33"/></g></svg>
