<svg id="Calque_1" data-name="Calque 1" xmlns="http://www.w3.org/2000/svg" viewBox="0 0 599 372.24"><defs><style>.cls-1{fill:#00a886;}</style></defs><title>ilot_vert</title><path class="cls-1" d="M658,211v23.48a2.37,2.37,0,0,1-.35.35c-0.12.08-17,.17-25.5,0.17V350.29a4.48,4.48,0,0,1-.49.53c-0.12.09-17,.18-25.5,0.18V235.74a4.62,4.62,0,0,0-.49-0.55,0.78,0.78,0,0,0-.42-0.18H580V211h78Z" transform="translate(-101 -211)"/><path class="cls-1" d="M198.91,446.83v24H130.24V331.17h26.59V446.83h42.08Z" transform="translate(-101 -211)"/><path class="cls-1" d="M359.08,407.83V268.18h25.59c-0.07-.07.07,0,0.16,0.16a0.82,0.82,0,0,1,.16.43q0,57.44,0,115.05h41.26a4.83,4.83,0,0,1,.56.51,0.8,0.8,0,0,1,.17.42c0,7.64,0,15.28,0,23.08H359.08Z" transform="translate(-101 -211)"/><path class="cls-1" d="M266.17,299.09h25.66V438.65c0.06-.07,0,0.07-0.15.17a0.78,0.78,0,0,1-.42.18H266.17V299.09Z" transform="translate(-101 -211)"/><path class="cls-1" d="M256.64,286.53l23.23-25.88L302,286.53l-9.36,7-13.49-14.74-12.84,14.73Z" transform="translate(-101 -211)"/><path class="cls-1" d="M219.24,333.28l-16.64,34.85c-2.72-.72-9.82-2.88-9.82-2.88l7.28-39.07Z" transform="translate(-101 -211)"/><path class="cls-1" d="M613.78,373.54L638,380.25S346.67,731.33,119,465.56c-1.91,2.61-14,17.09-18,22.44C324.67,751.33,643.77,385.05,643.77,385.05l9.74,23.5L700,323Z" transform="translate(-101 -211)"/><path class="cls-1" d="M504.13,240.32c-34,0-55,35.68-54.95,69.18,0,32.17,21.66,72.32,54.95,72.3,32.71,0,57.86-39.47,57.86-72.3C562,276,537.67,240.32,504.13,240.32Zm0.13,114.14c-19.39,0-32.42-25.52-32.4-44.41,0-20.25,13-42.4,32.4-42.39,19.62,0,35,22.14,35.06,42C539.41,328.71,523.53,354.47,504.25,354.46Z" transform="translate(-101 -211)"/></svg>
