<svg id="Calque_1" data-name="Calque 1" xmlns="http://www.w3.org/2000/svg" viewBox="0 0 197.18 186.55"><defs><style>.cls-1{fill:#9d2537;}</style></defs><title>logo_coeur_rouge</title><path class="cls-1" d="M269.94,341.92a1.93,1.93,0,0,0-.57-1.37h0l-4.76-4.68-4.76-4.68a1.8,1.8,0,0,1-.12-2.71,1.92,1.92,0,0,1,2.76,0l31.07,31.11a11.29,11.29,0,0,0,8,3.2,13.54,13.54,0,0,0,9.47-4c5-5,5.43-12.88.88-17.49l-21.6-21.57-1.1-.85a42,42,0,0,0-7.24-4.55,44.36,44.36,0,0,0-23.15-4.52,44.33,44.33,0,0,0-41.08,43.8c0,12.18,5.06,24,14.26,33.3l0.31,0.31,0-.43a12.53,12.53,0,0,1,1.15-6.45,11.64,11.64,0,0,1,2.43-3.48l33.53-33.56A1.93,1.93,0,0,0,269.94,341.92Z" transform="translate(-199.06 -258.76)"/><path class="cls-1" d="M285.7,357.85a2.26,2.26,0,0,0-.66-1.61L274.73,346a2,2,0,0,0-2.84,0l-33.47,33.47a8.78,8.78,0,0,0-2.57,6.26,9.74,9.74,0,0,0,9.61,9.61,8.89,8.89,0,0,0,6.26-2.57L285,359.46A2.26,2.26,0,0,0,285.7,357.85Z" transform="translate(-199.06 -258.76)"/><path class="cls-1" d="M359.16,322.62h0a44.51,44.51,0,0,0-59.93-2.56,2.16,2.16,0,0,0-.78,1.58,2.31,2.31,0,0,0,.67,1.74l15.35,15.35c6,6,5.62,16.18-.82,22.66a17.39,17.39,0,0,1-12.09,5.12c-4.41,0-7.24-1-9.78-3.58l-0.16-.18a2.61,2.61,0,0,0-1.66-1.09,1.49,1.49,0,0,0-1.12.51L266,384.86l-11.11,11.06a8.76,8.76,0,0,0-2.53,6.42,9.69,9.69,0,0,0,9.58,9.45,8.78,8.78,0,0,0,6.26-2.57l36.57-36.53c2-2.39,4.19-2.72,5.27-1.81,0.92,0.78,1.06,2.63-.81,4.85-3.11,3.51-34.37,34.7-37.11,37v-0.05l-0.22.21a8.67,8.67,0,0,0-2.57,6.26,9.74,9.74,0,0,0,9.61,9.61,8.89,8.89,0,0,0,6.26-2.57l39.28-40.07a4.47,4.47,0,0,1,3.09-1.68,2.05,2.05,0,0,1,1.54.43c0.85,0.8.9,2.62-1,4.75l-39.68,39.77a8.81,8.81,0,0,0-2.54,6.42,9.69,9.69,0,0,0,9.58,9.45,8.78,8.78,0,0,0,6.26-2.57l37.63-37.31q6.61-6.64,12.84-12.85l5.56-5.55c9.33-9.36,14.45-21.24,14.42-33.45A43.5,43.5,0,0,0,359.16,322.62Z" transform="translate(-199.06 -258.76)"/><path class="cls-1" d="M219.87,307.68a2,2,0,0,1-1-.27l-18.82-10.86a2,2,0,0,1,2-3.46l18.82,10.86A2,2,0,0,1,219.87,307.68Z" transform="translate(-199.06 -258.76)"/><path class="cls-1" d="M270.81,282.28a2,2,0,0,1-1.73-1l-10.86-18.82a2,2,0,0,1,3.46-2l10.86,18.82A2,2,0,0,1,270.81,282.28Z" transform="translate(-199.06 -258.76)"/><path class="cls-1" d="M375.43,307a2,2,0,0,1-1-3.73l18.82-10.86a2,2,0,1,1,2,3.46l-18.82,10.86A2,2,0,0,1,375.43,307Z" transform="translate(-199.06 -258.76)"/><path class="cls-1" d="M324.49,281.58a2,2,0,0,1-1.73-3l10.86-18.82a2,2,0,0,1,3.46,2l-10.86,18.82A2,2,0,0,1,324.49,281.58Z" transform="translate(-199.06 -258.76)"/></svg>
