<svg id="Calque_1" data-name="Calque 1" xmlns="http://www.w3.org/2000/svg" viewBox="0 0 56.1 75.7"><defs><style>.cls-1{fill:#00a886;}</style></defs><title>mailbox</title><path class="cls-1" d="M43.2,78.1H22V42.2a10.6,10.6,0,1,1,21.2,0V78.1ZM25,75.1H40.2V42.2a7.6,7.6,0,0,0-15.2,0V75.1h0Z" transform="translate(-22 -12.4)"/><path class="cls-1" d="M78,78.1H22V42.2A10.67,10.67,0,0,1,32.6,31.6H67.5A10.61,10.61,0,0,1,78.1,42.2L78,78.1h0Zm-8.4-3H75V42.2a7.6,7.6,0,0,0-7.6-7.6H32.6A7.6,7.6,0,0,0,25,42.2V75l44.6,0.1h0Z" transform="translate(-22 -12.4)"/><rect class="cls-1" x="7.2" y="41.6" width="6.7" height="2.9"/><path class="cls-1" d="M36.9,57.8H28.2V53h8.7v4.8Zm-6.7-2h4.7V55H30.2v0.8Z" transform="translate(-22 -12.4)"/><path class="cls-1" d="M68.2,12.4H57.7a0.79,0.79,0,0,0-.8.8V52.7h4.5v-28h6.9a0.79,0.79,0,0,0,.8-0.8V13.2A0.88,0.88,0,0,0,68.2,12.4Z" transform="translate(-22 -12.4)"/><rect class="cls-1" x="28.2" y="64.2" width="3.6" height="11"/><path class="cls-1" d="M54.4,88.1H49.8v-12h4.6v12Zm-3.7-1h2.6v-10H50.7v10Z" transform="translate(-22 -12.4)"/></svg>
