<svg id="Calque_1" data-name="Calque 1" xmlns="http://www.w3.org/2000/svg" viewBox="0 0 88.73 80.82"><defs><style>.cls-1{fill:#00a886;}</style></defs><title>paperplane</title><path class="cls-1" d="M94.1,7.7A1,1,0,0,0,93.9,7,1.57,1.57,0,0,0,92,6.4L6.3,41.3a1.59,1.59,0,0,0-.9,1.2,1.47,1.47,0,0,0,.5,1.4l21.5,18L26.8,85.6h0a1.14,1.14,0,0,0,.3.8,1.6,1.6,0,0,0,.9.7h0.3a1.28,1.28,0,0,0,1-.4L44,72.7l18.3,14a1.45,1.45,0,0,0,2.3-.6L94,8.4A1.7,1.7,0,0,0,94.1,7.7ZM30.4,61.9L69.1,29.4l-34,34.4-0.1.1a0.76,0.76,0,0,0-.2.4L30,76.9Zm53.9-49L28.9,59.2,9.7,43.2ZM32,80l4.9-12.8,4.7,3.6Zm30.5,3.1-24-18.5L88.7,13.8Z" transform="translate(-5.37 -6.28)"/></svg>
