<svg id="Calque_1" data-name="Calque 1" xmlns="http://www.w3.org/2000/svg" viewBox="0 0 78.77 58.6"><defs><style>.cls-1{fill:#05aa88;}</style></defs><title>telephone_vert</title><path class="cls-1" d="M74.9,10.7C68.8,4.4,54.7,0,39.5,0S10.1,4.4,4,10.8a11.58,11.58,0,1,0,19.2,8.7A11.21,11.21,0,0,0,21,12.8a81.66,81.66,0,0,1,36.8,0,11.21,11.21,0,0,0-2.2,6.7,11.6,11.6,0,0,0,23.2,0A10.87,10.87,0,0,0,74.9,10.7Z" transform="translate(-0.04 0)"/><path class="cls-1" d="M67.7,35.4h0a15.49,15.49,0,0,1-14.2-9.5l-2.3-5.6A2.22,2.22,0,0,0,49,18.1H30a2.22,2.22,0,0,0-2.2,2.2l-2.3,5.6a15.38,15.38,0,0,1-14.2,9.5h0a2.9,2.9,0,0,0-2.9,2.9h0V55.7a2.9,2.9,0,0,0,2.9,2.9H67.7a2.9,2.9,0,0,0,2.9-2.9h0V38.4a2.93,2.93,0,0,0-2.86-3h0ZM41.4,48.6a11.06,11.06,0,1,1,9-9A11.06,11.06,0,0,1,41.4,48.6Z" transform="translate(-0.04 0)"/></svg>
