<svg id="Capa_1" data-name="Capa 1" xmlns="http://www.w3.org/2000/svg" viewBox="0 0 79.49 64.6"><defs><style>.cls-1{fill:#fff;}</style></defs><title>twitter_blanc</title><path class="cls-1" d="M282.49,107.6a32.61,32.61,0,0,1-9.37,2.57,16.36,16.36,0,0,0,7.17-9,32.65,32.65,0,0,1-10.36,4A16.32,16.32,0,0,0,242.15,120a46.3,46.3,0,0,1-33.61-17,16.32,16.32,0,0,0,5,21.77,16.24,16.24,0,0,1-7.39-2c0,0.07,0,.14,0,0.21a16.32,16.32,0,0,0,13.08,16,16.32,16.32,0,0,1-7.36.28,16.32,16.32,0,0,0,15.23,11.32A32.92,32.92,0,0,1,203,157.22a46.15,46.15,0,0,0,25,7.33c30,0,46.4-24.85,46.4-46.4q0-1.06,0-2.11A33.13,33.13,0,0,0,282.49,107.6Z" transform="translate(-203 -99.96)"/></svg>
