<?xml version="1.0" standalone="no"?>
<!DOCTYPE svg PUBLIC "-//W3C//DTD SVG 1.1//EN" "http://www.w3.org/Graphics/SVG/1.1/DTD/svg11.dtd" >
<svg>
<metadata>
Created by FontForge 20110222 at Fri Jun 14 04:19:06 2013
 By Orthosie Webhosting
Copyright (c) 2011 by . All rights reserved.
</metadata>
<defs>
<font id="StaticRegular" horiz-adv-x="475" >
  <font-face 
    font-family="StaticRegular"
    font-weight="400"
    font-stretch="normal"
    units-per-em="1000"
    panose-1="2 0 5 6 0 0 0 2 0 3"
    ascent="750"
    descent="-250"
    x-height="470"
    cap-height="712"
    bbox="-10 -310 910 949"
    underline-thickness="50"
    underline-position="-50"
    unicode-range="U+0020-2212"
  />
<missing-glyph horiz-adv-x="355" 
 />
    <glyph glyph-name=".notdef" horiz-adv-x="355" 
 />
    <glyph glyph-name=".null" horiz-adv-x="0" 
 />
    <glyph glyph-name="nonmarkingreturn" horiz-adv-x="333" 
 />
    <glyph glyph-name="space" unicode=" " horiz-adv-x="268" 
 />
    <glyph glyph-name="exclam" unicode="!" horiz-adv-x="282" 
d="M140 106q23 0 40 -17t17 -40q0 -22 -17 -38.5t-40 -16.5q-22 0 -38.5 16t-16.5 39t16.5 40t38.5 17zM140 209q-14 0 -24.5 10.5t-10.5 25.5v437q0 15 10.5 25.5t24.5 10.5q15 0 25.5 -10.5t10.5 -25.5v-437q0 -15 -10.5 -25.5t-25.5 -10.5z" />
    <glyph glyph-name="quotedbl" unicode="&#x22;" horiz-adv-x="365" 
d="M254 461q-14 0 -24.5 10.5t-10.5 25.5v185q0 15 10.5 25.5t24.5 10.5q15 0 25.5 -10.5t10.5 -25.5v-185q0 -15 -10.5 -25.5t-25.5 -10.5zM110 461q-14 0 -24.5 10.5t-10.5 25.5v185q0 15 10.5 25.5t24.5 10.5q15 0 25.5 -10.5t10.5 -25.5v-185q0 -15 -10.5 -25.5
t-25.5 -10.5z" />
    <glyph glyph-name="numbersign" unicode="#" horiz-adv-x="679" 
d="M608 511q15 0 25.5 -10.5t10.5 -25.5t-10.5 -25t-25.5 -10h-101l-42 -176h91q15 0 25.5 -10.5t10.5 -25.5t-10.5 -25t-25.5 -10h-108l-41 -171q-8 -28 -35 -28q-16 0 -27 13.5t-7 30.5l36 155h-137l-41 -171q-8 -28 -34 -28q-17 0 -28 13t-7 31l37 155h-93
q-15 0 -25.5 10t-10.5 25t10.5 25.5t25.5 10.5h110l42 176h-100q-15 0 -25.5 10t-10.5 25t10.5 25.5t25.5 10.5h118l43 180q2 12 12 19.5t22 7.5q17 0 28 -13t7 -31l-39 -163h137l43 180q7 27 34 27q17 0 28 -13t7 -31l-39 -163h84zM392 264l42 176h-137l-42 -176h137z" />
    <glyph glyph-name="dollar" unicode="$" horiz-adv-x="493" 
d="M243 -79q-14 0 -24.5 10.5t-10.5 25.5v42q-72 12 -115 62.5t-43 112.5q0 15 10.5 25.5t24.5 10.5q15 0 25.5 -10.5t10.5 -25.5q0 -35 23 -64t64 -39v280q-44 26 -52 32q-100 69 -100 164q0 68 43 113t109 55v29q0 15 10.5 25.5t24.5 10.5q15 0 25.5 -10.5t10.5 -25.5v-29
q67 -11 110.5 -59.5t43.5 -115.5q0 -15 -10.5 -25.5t-25.5 -10.5t-25.5 10.5t-10.5 25.5q0 35 -21.5 64t-60.5 39v-252q25 -16 45 -26q119 -68 119 -194q0 -71 -47 -116.5t-117 -55.5v-42q0 -15 -10.5 -25.5t-25.5 -10.5zM371 171q0 42 -16.5 72.5t-75.5 66.5v-240
q43 8 67.5 34.5t24.5 66.5zM128 548q0 -69 80 -115v210q-40 -8 -60 -35t-20 -60z" />
    <glyph glyph-name="percent" unicode="%" horiz-adv-x="656" 
d="M493 718q19 0 30 -16.5t2 -35.5l-330 -652q-9 -20 -32 -20q-19 0 -30 16.5t-2 35.5l330 652q9 20 32 20zM317 587q0 -55 -38.5 -93.5t-92.5 -38.5t-92.5 38.5t-38.5 93.5q0 54 38.5 92.5t92.5 38.5t92.5 -38.5t38.5 -92.5zM126 587q0 -25 17.5 -42.5t42.5 -17.5
t42.5 17.5t17.5 42.5t-17.5 42.5t-42.5 17.5t-42.5 -17.5t-17.5 -42.5zM470 256q54 0 92.5 -38t38.5 -93q0 -54 -38.5 -92.5t-92.5 -38.5t-92.5 38.5t-38.5 92.5q0 55 38.5 93t92.5 38zM470 65q25 0 42.5 17.5t17.5 42.5t-17.5 42.5t-42.5 17.5t-42.5 -17.5t-17.5 -42.5
t17.5 -42.5t42.5 -17.5z" />
    <glyph glyph-name="ampersand" unicode="&#x26;" horiz-adv-x="548" 
d="M518 54q15 -16 6.5 -38t-32.5 -22q-15 0 -26 11l-67 75q-9 -12 -29 -32q-54 -54 -131 -54q-83 0 -141 58t-58 141v28q0 103 85 161q-85 90 -85 164q0 71 50.5 121.5t121.5 50.5q73 0 124.5 -51t51.5 -124q0 -15 -10.5 -25.5t-25.5 -10.5t-25 10.5t-10 25.5q0 43 -31 73.5
t-74 30.5q-41 0 -71 -30t-30 -71q0 -42 67 -116l216 -239l64 84q11 14 28 14q21 0 31 -20t-3 -38l-71 -93zM111 193q0 -53 37.5 -90.5t90.5 -37.5q49 0 87 40l24 28l-176 196q-63 -37 -63 -108v-28z" />
    <glyph glyph-name="quotesingle" unicode="'" horiz-adv-x="221" 
d="M110 461q-14 0 -24.5 10.5t-10.5 25.5v185q0 15 10.5 25.5t24.5 10.5q15 0 25.5 -10.5t10.5 -25.5v-185q0 -15 -10.5 -25.5t-25.5 -10.5z" />
    <glyph glyph-name="parenleft" unicode="(" horiz-adv-x="308" 
d="M244 -56q15 0 25.5 -10.5t10.5 -25.5q0 -14 -10.5 -24.5t-25.5 -10.5q-70 0 -119.5 50t-49.5 120v618q0 70 49.5 120t119.5 50q15 0 25.5 -10.5t10.5 -25.5t-10.5 -25.5t-25.5 -10.5q-40 0 -69 -28.5t-29 -69.5v-618q0 -41 28.5 -70t69.5 -29z" />
    <glyph glyph-name="parenright" unicode=")" horiz-adv-x="308" 
d="M64 -56q41 0 69.5 29t28.5 70v618q0 41 -29 69.5t-69 28.5q-15 0 -25.5 10.5t-10.5 25.5t10.5 25.5t25.5 10.5q70 0 119.5 -50t49.5 -120v-618q0 -70 -49.5 -120t-119.5 -50q-15 0 -25.5 10.5t-10.5 24.5q0 15 10.5 25.5t25.5 10.5z" />
    <glyph glyph-name="asterisk" unicode="*" horiz-adv-x="367" 
d="M347 599q5 -14 -2 -27.5t-21 -17.5l-83 -27l52 -71q12 -16 2.5 -36t-31.5 -20q-18 0 -29 15l-51 70l-52 -70q-11 -15 -29 -15q-21 0 -31 19t3 37l51 71l-83 27q-14 4 -21 17.5t-2 27.5q4 14 17.5 21t27.5 2l83 -27v87q0 15 10.5 25.5t25.5 10.5q14 0 24.5 -10.5
t10.5 -25.5v-87l83 27q14 5 27.5 -2t17.5 -21z" />
    <glyph glyph-name="plus" unicode="+" horiz-adv-x="411" 
d="M335 278q15 0 25.5 -10.5t10.5 -25.5q0 -14 -10.5 -24.5t-25.5 -10.5h-94v-94q0 -15 -10.5 -25.5t-25.5 -10.5q-14 0 -24.5 10.5t-10.5 25.5v94h-94q-15 0 -25.5 10.5t-10.5 24.5q0 15 10.5 25.5t25.5 10.5h94v94q0 15 10.5 25.5t24.5 10.5q15 0 25.5 -10.5t10.5 -25.5
v-94h94z" />
    <glyph glyph-name="comma" unicode="," horiz-adv-x="200" 
d="M140 33q0 -10 -5 -22l-1 -3q-1 -3 -4.5 -11t-9 -21.5t-16 -39t-24.5 -58.5q-8 -23 -31 -23q-18 0 -28 16t-3 34l35 89q-19 15 -19 39q0 23 15 39.5t37 16.5q23 0 38.5 -16.5t15.5 -39.5z" />
    <glyph glyph-name="hyphen" unicode="-" horiz-adv-x="411" 
d="M371 242q0 -14 -10.5 -24.5t-25.5 -10.5h-259q-15 0 -25.5 10.5t-10.5 24.5q0 15 10.5 25.5t25.5 10.5h259q15 0 25.5 -10.5t10.5 -25.5z" />
    <glyph glyph-name="period" unicode="." horiz-adv-x="202" 
d="M100 106q23 0 40 -17t17 -40q0 -22 -17 -38.5t-40 -16.5q-22 0 -38.5 16t-16.5 39t16.5 40t38.5 17z" />
    <glyph glyph-name="slash" unicode="/" horiz-adv-x="415" 
d="M371 718q19 0 30 -16.5t2 -35.5l-330 -652q-9 -20 -32 -20q-19 0 -30 16.5t-2 35.5l330 652q9 20 32 20z" />
    <glyph glyph-name="zero" unicode="0" 
d="M238 -6q-73 0 -124.5 51.5t-51.5 124.5v373q0 72 51.5 123.5t124.5 51.5q72 0 123.5 -51.5t51.5 -123.5v-373q0 -73 -51.5 -124.5t-123.5 -51.5zM238 647q-43 0 -73.5 -30.5t-30.5 -73.5v-373q0 -44 30 -74t74 -30q43 0 73.5 30.5t30.5 73.5v373q0 43 -30.5 73.5
t-73.5 30.5z" />
    <glyph glyph-name="one" unicode="1" 
d="M379 71q15 0 25.5 -10.5t10.5 -24.5q0 -15 -10.5 -25.5t-25.5 -10.5h-250q-15 0 -25.5 10.5t-10.5 25.5q0 14 10.5 24.5t25.5 10.5h94v513l-72 -86q-11 -13 -27 -13q-21 0 -31.5 20.5t3.5 38.5l135 161q11 13 27 13q14 0 25 -10.5t11 -25.5v-611h85z" />
    <glyph glyph-name="two" unicode="2" 
d="M382 0h-288q-21 0 -30.5 18.5t-0.5 36.5l229 366q46 73 46 125q0 41 -29.5 71t-71.5 30q-43 0 -73.5 -31t-30.5 -74q0 -14 -10.5 -24.5t-25.5 -10.5q-14 0 -24.5 10.5t-10.5 24.5q0 73 51.5 124.5t123.5 51.5q71 0 122 -50.5t51 -121.5q0 -75 -58 -163l-194 -311h224
q15 0 25 -10.5t10 -25.5t-10 -25.5t-25 -10.5z" />
    <glyph glyph-name="three" unicode="3" 
d="M231 -6q-73 0 -124 51.5t-51 123.5q0 15 10.5 25.5t24.5 10.5q15 0 25.5 -10.5t10.5 -25.5q0 -43 30.5 -73.5t73.5 -30.5t73.5 30.5t30.5 73.5v95q0 44 -28.5 74t-71.5 30q-17 0 -34 -6q-24 -8 -41 12q-15 20 0 42l155 224h-172v-50q0 -15 -10.5 -25.5t-25.5 -10.5
t-25.5 10.5t-10.5 25.5v86q0 14 10.5 24.5t25.5 10.5h276q21 0 31.5 -19t-1.5 -36l-152 -219q64 -12 104.5 -60.5t40.5 -112.5v-95q0 -72 -51 -123.5t-124 -51.5z" />
    <glyph glyph-name="four" unicode="4" 
d="M403 207q14 0 24.5 -10.5t10.5 -25.5q0 -14 -10.5 -24.5t-24.5 -10.5h-57v-106q0 -15 -10.5 -25.5t-25.5 -10.5t-25.5 10.5t-10.5 25.5v106h-202q-18 0 -29 15t-4 33l183 510q8 24 33 24q18 0 28.5 -15t5.5 -33l-166 -463h151v79q0 15 10.5 25.5t25.5 10.5t25.5 -10.5
t10.5 -25.5v-79h57z" />
    <glyph glyph-name="five" unicode="5" 
d="M237 490q73 0 124 -51t51 -124v-146q0 -72 -51 -123.5t-124 -51.5t-124 51.5t-51 123.5q0 15 10.5 25.5t24.5 10.5q15 0 25.5 -10.5t10.5 -25.5q0 -43 30.5 -73.5t73.5 -30.5t73.5 30.5t30.5 73.5v146q0 43 -30.5 73.5t-73.5 30.5q-38 0 -65.5 -21t-35.5 -59
q-9 -25 -34 -25q-15 0 -25.5 10.5t-10.5 25.5v327q0 14 10.5 24.5t25.5 10.5h254q15 0 25.5 -10.5t10.5 -24.5q0 -15 -10.5 -25.5t-25.5 -10.5h-219v-187q44 36 100 36z" />
    <glyph glyph-name="six" unicode="6" 
d="M236 461q73 0 124.5 -51t51.5 -124v-117q0 -72 -51.5 -123.5t-124.5 -51.5q-72 0 -123.5 51.5t-51.5 123.5v373q0 73 51.5 124.5t123.5 51.5q66 0 117.5 -46.5t57.5 -113.5q2 -14 -8.5 -26.5t-25.5 -12.5q-14 0 -25 9.5t-12 23.5q-4 40 -34 67t-70 27q-43 0 -73.5 -30.5
t-30.5 -73.5v-121q45 40 104 40zM236 65q43 0 73.5 30.5t30.5 73.5v117q0 44 -30 74t-74 30q-45 0 -74.5 -27t-29.5 -77v-117q0 -43 30.5 -73.5t73.5 -30.5z" />
    <glyph glyph-name="seven" unicode="7" 
d="M133 41l194 599h-192v-50q0 -15 -10.5 -25.5t-25.5 -10.5t-25.5 10.5t-10.5 25.5v86q0 14 10.5 24.5t25.5 10.5h277q18 0 28.5 -15t5.5 -31l-209 -646q-9 -25 -34 -25q-18 0 -28.5 15.5t-5.5 31.5z" />
    <glyph glyph-name="eight" unicode="8" 
d="M413 509q0 -84 -65 -134q65 -50 65 -135v-76q0 -70 -49.5 -120t-120.5 -50h-10q-71 0 -120.5 50t-49.5 120v76q0 84 66 135q-66 51 -66 134v34q0 71 49.5 120.5t120.5 49.5h10q71 0 120.5 -49.5t49.5 -120.5v-34zM342 240q0 41 -29 70t-70 29h-10q-41 0 -70 -29t-29 -70
v-76q0 -41 29 -70t70 -29h10q41 0 70 29t29 70v76zM233 411h10q41 0 70 28.5t29 69.5v34q0 41 -29 70t-70 29h-10q-41 0 -70 -29t-29 -70v-34q0 -41 29 -69.5t70 -28.5z" />
    <glyph glyph-name="nine" unicode="9" 
d="M238 251q-73 0 -124.5 51t-51.5 124v117q0 72 51.5 123.5t124.5 51.5q72 0 123.5 -51.5t51.5 -123.5v-373q0 -73 -51.5 -124.5t-123.5 -51.5q-66 0 -117.5 46.5t-57.5 113.5q-2 14 8.5 26.5t25.5 12.5q14 0 25 -9.5t12 -23.5q4 -40 34 -67t70 -27q43 0 73.5 30.5
t30.5 73.5v121q-45 -40 -104 -40zM238 647q-43 0 -73.5 -30.5t-30.5 -73.5v-117q0 -44 30 -74t74 -30q45 0 74.5 27t29.5 77v117q0 43 -30.5 73.5t-73.5 30.5z" />
    <glyph glyph-name="colon" unicode=":" horiz-adv-x="202" 
d="M100 106q23 0 40 -17t17 -40q0 -22 -17 -38.5t-40 -16.5q-22 0 -38.5 16t-16.5 39t16.5 40t38.5 17zM100 390q23 0 40 -17t17 -40q0 -22 -17 -38.5t-40 -16.5q-22 0 -38.5 16t-16.5 39t16.5 40t38.5 17z" />
    <glyph glyph-name="semicolon" unicode=";" horiz-adv-x="193" 
d="M76 390q23 0 40 -17t17 -40q0 -22 -17 -38.5t-40 -16.5q-22 0 -38.5 16t-16.5 39t16.5 40t38.5 17zM130 33q0 -10 -5 -22l-1 -3q-1 -3 -4.5 -11t-9 -21.5t-16 -39t-24.5 -58.5q-8 -23 -31 -23q-18 0 -28 16t-3 34l35 89q-19 15 -19 39q0 23 15 39.5t37 16.5
q23 0 38.5 -16.5t15.5 -39.5z" />
    <glyph glyph-name="less" unicode="&#x3c;" horiz-adv-x="375" 
d="M275 3l-223 203q-12 10 -12 26t12 26l223 203q11 9 24 9q24 0 32.5 -23.5t-8.5 -38.5l-194 -176l194 -176q18 -17 8 -39.5t-32 -22.5q-13 0 -24 9z" />
    <glyph glyph-name="equal" unicode="=" horiz-adv-x="461" 
d="M396 315q0 -14 -10.5 -24.5t-25.5 -10.5h-259q-15 0 -25.5 10.5t-10.5 24.5q0 15 10.5 25.5t25.5 10.5h259q15 0 25.5 -10.5t10.5 -25.5zM396 168q0 -14 -10.5 -24.5t-25.5 -10.5h-259q-15 0 -25.5 10.5t-10.5 24.5q0 15 10.5 25.5t25.5 10.5h259q15 0 25.5 -10.5
t10.5 -25.5z" />
    <glyph glyph-name="greater" unicode="&#x3e;" horiz-adv-x="379" 
d="M102 461l223 -203q12 -10 12 -26t-12 -26l-223 -203q-10 -9 -24 -9q-24 0 -32.5 23.5t8.5 38.5l194 176l-194 176q-18 17 -8 39.5t32 22.5q14 0 24 -9z" />
    <glyph glyph-name="question" unicode="?" horiz-adv-x="417" 
d="M193 106q23 0 40 -16.5t17 -39.5t-17 -39.5t-40 -16.5t-39 16.5t-16 39.5t16.5 39.5t38.5 16.5zM318 665q51 -51 51 -119q0 -35 -14.5 -69t-28.5 -52t-40 -48q-19 -22 -28.5 -34t-18.5 -30.5t-9 -35.5v-65q0 -15 -10.5 -25.5t-25.5 -10.5t-25.5 10.5t-10.5 25.5v65
q0 29 13 58.5t25.5 46t36.5 42.5q22 26 32.5 39.5t21.5 37t11 45.5q0 38 -30.5 69.5t-73.5 31.5t-73.5 -30.5t-30.5 -73.5q0 -15 -10.5 -25.5t-25.5 -10.5t-25.5 10.5t-10.5 25.5q0 72 51.5 123.5t124.5 51.5q71 0 124 -53z" />
    <glyph glyph-name="at" unicode="@" horiz-adv-x="671" 
d="M341 630q106 0 180.5 -74.5t74.5 -180.5v-131q0 -40 -32.5 -71t-73.5 -31q-42 0 -74 29q-32 -29 -75 -29h-10q-47 0 -80 33t-33 80v120q0 47 33 80t80 33h10q47 0 80 -33t33 -80v-131q0 -13 10.5 -21.5t25.5 -8.5q14 0 24.5 9t10.5 21v131q0 76 -54 130t-130 54h-10
q-77 0 -130.5 -53.5t-53.5 -130.5v-120q0 -76 54 -130t130 -54q15 0 25.5 -10.5t10.5 -25.5q0 -14 -10.5 -24.5t-25.5 -10.5q-106 0 -181 74.5t-75 180.5v120q0 106 75 180.5t181 74.5h10zM383 255v120q0 17 -12.5 29.5t-29.5 12.5h-10q-17 0 -29.5 -12.5t-12.5 -29.5v-120
q0 -17 12.5 -29t29.5 -12h10q17 0 29.5 12t12.5 29z" />
    <glyph glyph-name="A" unicode="A" horiz-adv-x="519" 
d="M492 40q4 -16 -6.5 -31t-28.5 -15q-25 0 -33 26l-45 146h-238l-45 -146q-9 -26 -34 -26q-17 0 -28.5 14.5t-5.5 31.5l197 653q8 25 35 25q26 0 34 -25zM162 237h195l-97 323z" />
    <glyph glyph-name="B" unicode="B" horiz-adv-x="542" 
d="M390 385q45 -29 71 -75.5t26 -100.5q0 -86 -61.5 -147.5t-147.5 -61.5h-158q-14 0 -24.5 10.5t-10.5 25.5v641q0 14 10.5 24.5t24.5 10.5h158q73 0 128 -53.5t55 -128.5q0 -91 -71 -145zM278 641h-122v-224h122q46 0 79 33t33 80q0 45 -33 78t-79 33zM278 72q57 0 97 40
t40 97t-40 97t-97 40h-122v-274h122z" />
    <glyph glyph-name="C" unicode="C" horiz-adv-x="508" 
d="M274 -6q-82 0 -140.5 58t-58.5 141v326q0 82 58.5 140.5t140.5 58.5q76 0 133 -52.5t65 -126.5q2 -14 -7.5 -26t-24.5 -13q-14 -2 -26 7.5t-13 24.5q-5 49 -41.5 82t-85.5 33q-52 0 -90 -37.5t-38 -90.5v-326q0 -53 38 -90.5t90 -37.5q49 0 85.5 33t41.5 82q1 15 13 24.5
t26 7.5q15 -1 24.5 -13t7.5 -26q-7 -76 -65 -127.5t-133 -51.5z" />
    <glyph glyph-name="D" unicode="D" horiz-adv-x="539" 
d="M270 0h-149q-15 0 -25.5 10.5t-10.5 25.5v641q0 14 10.5 24.5t25.5 10.5h149q82 0 140.5 -58t58.5 -141v-313q0 -83 -58.5 -141.5t-140.5 -58.5zM156 641v-569h114q53 0 90.5 37.5t37.5 90.5v313q0 53 -37.5 90.5t-90.5 37.5h-114z" />
    <glyph glyph-name="E" unicode="E" horiz-adv-x="474" 
d="M408 72q15 0 25.5 -10.5t10.5 -25.5t-10.5 -25.5t-25.5 -10.5h-288q-14 0 -24.5 10.5t-10.5 25.5v641q0 14 10.5 24.5t24.5 10.5h285q15 0 25.5 -10.5t10.5 -24.5q0 -15 -10.5 -25.5t-25.5 -10.5h-249v-222h220q15 0 25.5 -10.5t10.5 -25.5q0 -14 -10.5 -24.5
t-25.5 -10.5h-220v-276h252z" />
    <glyph glyph-name="F" unicode="F" horiz-adv-x="472" 
d="M427 640h-271v-227h240q15 0 25.5 -10.5t10.5 -25.5q0 -14 -10.5 -24.5t-25.5 -10.5h-240v-312q0 -15 -10.5 -25.5t-25.5 -10.5q-14 0 -24.5 10.5t-10.5 25.5v646q0 15 10.5 25.5t24.5 10.5h307q14 0 24.5 -10.5t10.5 -25.5t-10.5 -25.5t-24.5 -10.5z" />
    <glyph glyph-name="G" unicode="G" horiz-adv-x="539" 
d="M269 -6q-82 0 -140.5 58.5t-58.5 140.5v326q0 82 58.5 140.5t140.5 58.5q77 0 134 -52.5t65 -126.5q1 -14 -8.5 -25.5t-23.5 -13.5q-15 -1 -26 8.5t-13 23.5q-5 49 -42 82t-86 33q-52 0 -89.5 -37.5t-37.5 -90.5v-326q0 -53 37.5 -90.5t89.5 -37.5q53 0 90.5 37.5
t37.5 90.5v108h-106q-15 0 -25.5 10.5t-10.5 25.5q0 14 10.5 24.5t25.5 10.5h142q15 0 25.5 -10.5t10.5 -24.5v-144q0 -82 -58.5 -140.5t-141.5 -58.5z" />
    <glyph glyph-name="H" unicode="H" horiz-adv-x="566" 
d="M445 718q15 0 25.5 -10.5t10.5 -25.5v-652q0 -15 -10.5 -25.5t-25.5 -10.5q-14 0 -24.5 10.5t-10.5 25.5v318h-254v-318q0 -15 -10.5 -25.5t-24.5 -10.5q-15 0 -25.5 10.5t-10.5 25.5v652q0 15 10.5 25.5t25.5 10.5q14 0 24.5 -10.5t10.5 -25.5v-263h254v263
q0 15 10.5 25.5t24.5 10.5z" />
    <glyph glyph-name="I" unicode="I" horiz-adv-x="436" 
d="M343 72q15 0 25.5 -10.5t10.5 -25.5t-10.5 -25.5t-25.5 -10.5h-250q-15 0 -25.5 10.5t-10.5 25.5t10.5 25.5t25.5 10.5h90v568h-90q-15 0 -25.5 10.5t-10.5 25.5t10.5 25.5t25.5 10.5h250q15 0 25.5 -10.5t10.5 -25.5t-10.5 -25.5t-25.5 -10.5h-89v-568h89z" />
    <glyph glyph-name="J" unicode="J" horiz-adv-x="498" 
d="M214 -6q-76 0 -133 52.5t-65 126.5q-1 15 8 26t24 13q14 2 26 -7.5t13 -24.5q5 -49 41.5 -82t85.5 -33q53 0 90.5 37.5t37.5 90.5v447h-205q-15 0 -25.5 10.5t-10.5 25.5t10.5 25.5t25.5 10.5h241q14 0 24.5 -10.5t10.5 -25.5v-483q0 -83 -58.5 -141t-140.5 -58z" />
    <glyph glyph-name="K" unicode="K" horiz-adv-x="506" 
d="M482 45q7 -17 -2.5 -34t-28.5 -17q-21 0 -34 21l-169 365l-91 -110v-240q0 -15 -10.5 -25.5t-25.5 -10.5t-25.5 10.5t-10.5 25.5v652q0 15 10.5 25.5t25.5 10.5t25.5 -10.5t10.5 -25.5v-300l265 323q11 13 28 13q22 0 32 -20t-5 -38l-179 -218z" />
    <glyph glyph-name="L" unicode="L" horiz-adv-x="478" 
d="M412 78q15 0 25.5 -10.5t10.5 -25.5t-10.5 -25.5t-25.5 -10.5h-291q-15 0 -25.5 10.5t-10.5 25.5v640q0 15 10.5 25.5t25.5 10.5t25 -10.5t10 -25.5v-604h256z" />
    <glyph glyph-name="M" unicode="M" horiz-adv-x="703" 
d="M583 -6q-15 0 -25.5 10.5t-10.5 25.5v501l-164 -328q-9 -20 -32 -20q-21 0 -32 20l-163 328v-501q0 -15 -10.5 -25.5t-25.5 -10.5q-14 0 -24.5 10.5t-10.5 25.5v652q1 15 11 25.5t24 10.5q22 0 32 -20l199 -400l200 400q10 20 32 20q15 0 25 -11t10 -25v-652
q0 -15 -10.5 -25.5t-24.5 -10.5z" />
    <glyph glyph-name="N" unicode="N" horiz-adv-x="571" 
d="M450 -6q-23 0 -32 20l-262 519v-503q0 -15 -10.5 -25.5t-25.5 -10.5q-14 0 -24.5 10.5t-10.5 25.5v652q0 15 10.5 25.5t24.5 10.5q22 0 32 -20l262 -519v503q0 15 10.5 25.5t25.5 10.5t25.5 -10.5t10.5 -25.5v-652q0 -28 -28 -35q-3 -1 -8 -1z" />
    <glyph glyph-name="O" unicode="O" horiz-adv-x="538" 
d="M269 -6q-83 0 -141 58t-58 141v326q0 82 58.5 140.5t140.5 58.5t140.5 -58.5t58.5 -140.5v-326q0 -83 -58 -141t-141 -58zM269 647q-53 0 -90.5 -37.5t-37.5 -90.5v-326q0 -53 37.5 -90.5t90.5 -37.5t90.5 37.5t37.5 90.5v326q0 53 -37.5 90.5t-90.5 37.5z" />
    <glyph glyph-name="P" unicode="P" horiz-adv-x="495" 
d="M120 -6q-14 0 -24.5 10.5t-10.5 25.5v646q0 15 10.5 25.5t24.5 10.5h163q79 0 134.5 -56t55.5 -135q0 -78 -55.5 -134t-134.5 -56h-127v-301q0 -15 -10.5 -25.5t-25.5 -10.5zM156 640v-237h127q49 0 84 34.5t35 83.5t-35 84t-84 35h-127z" />
    <glyph glyph-name="Q" unicode="Q" horiz-adv-x="554" 
d="M473 36q16 -17 7 -38.5t-34 -21.5q-14 0 -24 10l-41 43q-51 -35 -112 -35q-83 0 -141 58t-58 141v326q0 82 58.5 140.5t140.5 58.5t140.5 -58.5t58.5 -140.5v-326q0 -64 -36 -114zM269 65q32 0 61 16l-54 55q-15 16 -6.5 38.5t32.5 22.5q14 0 25 -11l54 -55q16 29 16 62
v326q0 53 -37.5 90.5t-90.5 37.5t-90.5 -37.5t-37.5 -90.5v-326q0 -53 37.5 -90.5t90.5 -37.5z" />
    <glyph glyph-name="R" unicode="R" horiz-adv-x="524" 
d="M476 41q4 -17 -5.5 -32t-27.5 -15q-25 0 -35 24l-105 323h-147v-312q0 -14 -10.5 -24.5t-25.5 -10.5q-14 0 -24.5 10.5t-10.5 24.5v648q0 14 10.5 24.5t24.5 10.5h171q77 0 131.5 -54.5t54.5 -131.5q0 -54 -29 -99t-76 -68zM156 412h135q48 0 81.5 33.5t33.5 80.5
q0 48 -33.5 81.5t-81.5 33.5h-135v-229z" />
    <glyph glyph-name="S" unicode="S" horiz-adv-x="483" 
d="M240 -6q-87 0 -141 54t-54 124q0 15 10.5 25.5t24.5 10.5q15 0 25.5 -10.5t10.5 -25.5q0 -42 33.5 -74.5t90.5 -32.5q58 0 92 29t34 76q0 42 -15 72t-67 62q-115 67 -133 79q-100 69 -100 164q0 78 54.5 124.5t132.5 46.5q79 0 134.5 -51t55.5 -127q0 -15 -10.5 -25.5
t-25.5 -10.5t-25.5 10.5t-10.5 25.5q0 43 -31.5 75t-86.5 32q-56 0 -85.5 -29t-29.5 -70q0 -18 2 -29t17 -32t44 -42q21 -15 133 -80q119 -68 119 -195q0 -80 -59 -128t-139 -48z" />
    <glyph glyph-name="T" unicode="T" horiz-adv-x="445" 
d="M51 712h343q15 0 25.5 -10.5t10.5 -24.5q0 -15 -10.5 -25.5t-25.5 -10.5h-136v-611q0 -15 -10.5 -25.5t-25.5 -10.5q-14 0 -24.5 10.5t-10.5 25.5v611h-136q-15 0 -25.5 10.5t-10.5 25.5q0 14 10.5 24.5t25.5 10.5z" />
    <glyph glyph-name="U" unicode="U" horiz-adv-x="568" 
d="M284 -6q-82 0 -140.5 58.5t-58.5 140.5v489q0 15 10.5 25.5t25.5 10.5q14 0 24.5 -10.5t10.5 -25.5v-489q0 -52 37.5 -89.5t90.5 -37.5t90.5 37t37.5 90v489q0 15 10.5 25.5t25.5 10.5q14 0 24.5 -10.5t10.5 -25.5v-489q0 -82 -58.5 -140.5t-140.5 -58.5z" />
    <glyph glyph-name="V" unicode="V" horiz-adv-x="502" 
d="M251 -6q-26 0 -35 26l-180 652q-4 17 6.5 31.5t27.5 14.5q27 0 34 -27l147 -528l146 528q7 27 34 27q18 0 29 -15t6 -31l-181 -652q-7 -26 -34 -26z" />
    <glyph glyph-name="W" unicode="W" horiz-adv-x="765" 
d="M694 718q17 0 29 -14.5t6 -31.5l-190 -652q-7 -26 -34 -26q-25 0 -34 24l-88 267l-89 -267q-8 -24 -35 -24q-26 0 -33 26l-190 652q-4 14 3 27t21 17t27 -2.5t17 -21.5l158 -543l83 249l-91 273q-5 16 5 31.5t28 15.5q25 0 35 -25l61 -182l61 182q8 25 34 25
q17 0 27.5 -15t5.5 -32l-91 -273l83 -249l158 543q7 26 33 26z" />
    <glyph glyph-name="X" unicode="X" horiz-adv-x="504" 
d="M460 46q8 -17 -1.5 -34.5t-29.5 -17.5q-23 0 -33 19l-144 279l-145 -279q-10 -19 -32 -19q-18 0 -29 16.5t-2 35.5l168 323l-155 297q-8 17 2 34.5t30 17.5q23 0 32 -19l131 -252l131 252q10 19 32 19q18 0 29 -16.5t2 -35.5l-154 -297z" />
    <glyph glyph-name="Y" unicode="Y" horiz-adv-x="476" 
d="M409 718q19 0 30 -16t3 -34l-169 -374v-264q0 -15 -10 -25.5t-25 -10.5t-25.5 10.5t-10.5 25.5v264l-168 374q-8 17 2 33.5t30 16.5q23 0 33 -21l139 -309l139 309q10 21 32 21z" />
    <glyph glyph-name="Z" unicode="Z" horiz-adv-x="468" 
d="M398 0h-327q-20 0 -30 17.5t-1 34.5l304 588h-256q-15 0 -25.5 10.5t-10.5 25.5t10.5 25.5t25.5 10.5h314q20 0 30 -17.5t2 -35.5l-304 -587h268q14 0 24.5 -10.5t10.5 -25.5t-10.5 -25.5t-24.5 -10.5z" />
    <glyph glyph-name="bracketleft" unicode="[" horiz-adv-x="307" 
d="M262 682q0 -14 -10.5 -24.5t-25.5 -10.5h-55v-702h55q15 0 25.5 -10.5t10.5 -25.5q0 -14 -10.5 -24.5t-25.5 -10.5h-90q-15 0 -25.5 10.5t-10.5 24.5v773q0 14 10 24.5t24 11.5h92q15 0 25.5 -10.5t10.5 -25.5z" />
    <glyph glyph-name="backslash" unicode="\" horiz-adv-x="415" 
d="M12 666q-9 17 1.5 34.5t30.5 17.5q23 0 32 -20l330 -652q9 -17 -1.5 -34.5t-30.5 -17.5q-23 0 -32 20z" />
    <glyph glyph-name="bracketright" unicode="]" horiz-adv-x="307" 
d="M45 682q0 15 10.5 25.5t25.5 10.5h90q16 -1 26 -11.5t10 -24.5v-772q0 -15 -10.5 -25.5t-25.5 -10.5h-90q-15 0 -25.5 10.5t-10.5 24.5q0 15 10.5 25.5t25.5 10.5h55v702h-55q-15 0 -25.5 10.5t-10.5 24.5z" />
    <glyph glyph-name="asciicircum" unicode="^" horiz-adv-x="457" 
d="M30 490l164 218q7 12 20 12q14 0 21 -12l164 -218q13 -18 5 -35t-24.5 -18.5t-30.5 13.5l-135 181l-133 -183q-12 -17 -30.5 -13t-25 20t4.5 35z" />
    <glyph glyph-name="underscore" unicode="_" horiz-adv-x="654" 
d="M609 -127q0 -14 -10.5 -24.5t-25.5 -10.5h-492q-15 0 -25.5 10.5t-10.5 24.5q0 15 10.5 25.5t25.5 10.5h492q15 0 25.5 -10.5t10.5 -25.5z" />
    <glyph glyph-name="grave" unicode="`" horiz-adv-x="421" 
d="M315 596q-6 -13 -20.5 -18t-27.5 2l-145 71q-13 7 -18 20.5t2 27.5q7 13 21 17.5t27 -2.5l145 -70q13 -7 18 -21t-2 -27z" />
    <glyph glyph-name="a" unicode="a" horiz-adv-x="466" 
d="M360 474q15 0 25.5 -10.5t10.5 -24.5v-409q0 -15 -10.5 -25.5t-25.5 -10.5q-14 0 -24.5 10.5t-10.5 25.5v2q-45 -38 -97 -38q-70 0 -119 49.5t-49 119.5v143q0 70 49 119t119 49q54 0 97 -37v2q0 14 10.5 24.5t24.5 10.5zM228 66q41 0 69 22.5t28 61.5v168q0 39 -28 62
t-69 23q-40 0 -68.5 -28.5t-28.5 -68.5v-143q0 -41 28.5 -69t68.5 -28z" />
    <glyph glyph-name="b" unicode="b" horiz-adv-x="481" 
d="M253 474q70 0 119 -49t49 -119v-143q0 -70 -49 -119.5t-119 -49.5q-52 0 -97 38v-2q0 -15 -10.5 -25.5t-25.5 -10.5q-14 0 -24.5 10.5t-10.5 25.5v653q0 14 10.5 24.5t24.5 10.5q15 0 25.5 -10.5t10.5 -24.5v-246q43 37 97 37zM350 163v143q0 40 -28.5 68.5t-68.5 28.5
q-42 0 -69.5 -23t-27.5 -62v-167q0 -39 27.5 -62t69.5 -23q40 0 68.5 28.5t28.5 68.5z" />
    <glyph glyph-name="c" unicode="c" horiz-adv-x="440" 
d="M228 -6q-70 0 -119 49.5t-49 120.5v140q0 70 49 120t119 50q62 0 109.5 -41.5t56.5 -101.5q2 -15 -6.5 -27t-22.5 -14q-15 -2 -27 6.5t-14 23.5q-6 36 -33 59.5t-63 23.5q-40 0 -68.5 -29t-28.5 -70v-140q0 -41 28.5 -70t68.5 -29q36 0 63 23.5t33 59.5q2 15 14 23.5
t27 6.5q14 -2 22.5 -14.5t6.5 -26.5q-10 -62 -58 -102.5t-108 -40.5z" />
    <glyph glyph-name="d" unicode="d" horiz-adv-x="481" 
d="M228 474q54 0 97 -37v246q0 14 10.5 24.5t25.5 10.5q14 0 24.5 -10.5t10.5 -24.5v-653q0 -15 -10.5 -25.5t-24.5 -10.5q-15 0 -25.5 10.5t-10.5 25.5v2q-45 -38 -97 -38q-70 0 -119 49.5t-49 119.5v143q0 70 49 119t119 49zM131 306v-143q0 -40 28.5 -68.5t68.5 -28.5
q42 0 69.5 23t27.5 62v167q0 39 -27.5 62t-69.5 23q-40 0 -68.5 -28.5t-28.5 -68.5z" />
    <glyph glyph-name="e" unicode="e" horiz-adv-x="447" 
d="M229 474q69 0 118.5 -50t49.5 -120v-69q0 -14 -10.5 -24.5t-25.5 -10.5h-229v-38q0 -40 28.5 -68.5t68.5 -28.5q28 0 52 15.5t35 40.5q7 14 20.5 19t27.5 -1q13 -7 18 -21t-1 -27q-20 -44 -61.5 -70.5t-90.5 -26.5q-70 0 -119.5 49t-49.5 119v144q0 69 49.5 118.5
t119.5 49.5zM132 306v-35h193v35q0 40 -28 68.5t-68 28.5t-68.5 -28.5t-28.5 -68.5z" />
    <glyph glyph-name="f" unicode="f" horiz-adv-x="397" 
d="M336 468q14 0 24.5 -10.5t10.5 -25.5q0 -14 -10 -24.5t-25 -10.5h-127v-367q0 -15 -10.5 -25.5t-24.5 -10.5q-15 0 -25.5 10.5t-10.5 25.5v367h-62q-15 0 -25.5 10t-10.5 25t10.5 25.5t25.5 10.5h62v97q0 64 41 108q42 45 106 45h51q15 0 25.5 -10.5t10.5 -24.5
q0 -15 -10.5 -25.5t-25.5 -10.5h-51q-32 0 -54 -23.5t-22 -58.5v-97h127z" />
    <glyph glyph-name="g" unicode="g" horiz-adv-x="467" 
d="M356 474q15 0 25.5 -10.5t10.5 -24.5v-521q0 -69 -49.5 -118.5t-118.5 -49.5q-70 0 -119.5 49.5t-49.5 118.5q0 15 10.5 25.5t25.5 10.5t25.5 -10.5t10.5 -25.5q0 -40 28.5 -68t68.5 -28t68 28t28 68v114q-43 -38 -96 -38q-70 0 -119.5 49.5t-49.5 119.5v143
q0 70 49.5 119t119.5 49q54 0 96 -37v2q0 14 10.5 24.5t25.5 10.5zM224 66q41 0 68.5 22.5t27.5 61.5v168q0 39 -27.5 62t-68.5 23q-40 0 -68.5 -28.5t-28.5 -68.5v-143q0 -41 28.5 -69t68.5 -28z" />
    <glyph glyph-name="h" unicode="h" horiz-adv-x="476" 
d="M253 474q69 0 118.5 -49t49.5 -119v-276q0 -15 -10.5 -25.5t-25.5 -10.5t-25.5 10.5t-10.5 25.5v276q0 40 -28 68.5t-68 28.5q-42 0 -69.5 -23t-27.5 -62v-288q0 -15 -10.5 -25.5t-25.5 -10.5t-25 10.5t-10 25.5v653q0 14 10 24.5t25 10.5t25.5 -10.5t10.5 -24.5v-246
q42 37 97 37z" />
    <glyph glyph-name="i" unicode="i" horiz-adv-x="262" 
d="M130 652q23 0 40 -17t17 -40q0 -22 -17 -38.5t-40 -16.5q-22 0 -38.5 16t-16.5 39t16.5 40t38.5 17zM130 474q14 0 24.5 -10.5t10.5 -25.5v-408q0 -15 -10.5 -25.5t-24.5 -10.5q-15 0 -25.5 10.5t-10.5 25.5v408q0 15 10.5 25.5t25.5 10.5z" />
    <glyph glyph-name="j" unicode="j" horiz-adv-x="346" 
d="M231 652q23 0 40 -17t17 -40q0 -22 -17 -38.5t-40 -16.5t-39 16t-16 39t16.5 40t38.5 17zM136 -250q-55 0 -93 39t-38 96v1q0 15 10.5 25.5t25.5 10.5q14 0 24.5 -10.5t10.5 -25.5v-1q0 -28 17 -46t43 -18t42.5 18t16.5 46v512h-119q-15 0 -25.5 10.5t-10.5 25.5
q0 14 10.5 24.5t25.5 10.5h155q15 0 25 -10t10 -25v-548q0 -57 -37.5 -96t-92.5 -39z" />
    <glyph glyph-name="k" unicode="k" horiz-adv-x="449" 
d="M414 47q9 -18 -0.5 -35.5t-30.5 -17.5t-32 19l-124 230q-35 -37 -62 -64l-9 -10v-139q0 -15 -10.5 -25.5t-24.5 -10.5q-15 0 -25.5 10.5t-10.5 25.5v653q0 14 10.5 24.5t25.5 10.5q14 0 24.5 -10.5t10.5 -24.5v-411l186 191q10 11 24.5 11t25.5 -10q11 -11 11 -25
t-10 -25l-113 -116z" />
    <glyph glyph-name="l" unicode="l" horiz-adv-x="376" 
d="M211 -6q-55 0 -93 39t-38 96v553q0 15 10.5 25.5t25.5 10.5q14 0 24.5 -10.5t10.5 -25.5v-553q0 -27 17.5 -45.5t42.5 -18.5t42 18.5t17 45.5v2q0 14 10.5 24.5t24.5 10.5q15 0 25.5 -10.5t10.5 -24.5v-2q0 -57 -37.5 -96t-92.5 -39z" />
    <glyph glyph-name="m" unicode="m" horiz-adv-x="683" 
d="M467 474q68 0 112 -49t44 -119v-276q0 -15 -10.5 -25.5t-25.5 -10.5q-14 0 -24.5 10.5t-10.5 25.5v276q0 41 -23 69t-62 28q-40 0 -62.5 -22.5t-22.5 -62.5v-288q0 -15 -10.5 -25.5t-24.5 -10.5q-15 0 -25.5 10.5t-10.5 25.5v276q0 41 -23 69t-62 28q-40 0 -62 -22.5
t-22 -62.5v-288q0 -15 -10.5 -25.5t-25.5 -10.5t-25.5 10.5t-10.5 25.5v408q0 15 10.5 25.5t25.5 10.5t25.5 -10.5t10.5 -25.5v-1q35 37 84 37q64 0 117 -53q17 21 50 37t74 16z" />
    <glyph glyph-name="n" unicode="n" horiz-adv-x="466" 
d="M238 474q70 0 119 -49t49 -119v-277q0 -14 -10.5 -24.5t-24.5 -10.5q-15 0 -25.5 10.5t-10.5 24.5v277q0 40 -28.5 68.5t-68.5 28.5q-41 0 -69 -23t-28 -62v-289q0 -14 -10.5 -24.5t-24.5 -10.5q-15 0 -25.5 10.5t-10.5 24.5v410q0 14 10.5 24.5t25.5 10.5
q14 0 24.5 -10.5t10.5 -24.5v-2q37 37 97 37z" />
    <glyph glyph-name="o" unicode="o" horiz-adv-x="456" 
d="M228 -6q-70 0 -119 49.5t-49 119.5v143q0 70 49 119t119 49t119 -49t49 -119v-143q0 -70 -49 -119.5t-119 -49.5zM228 403q-40 0 -68.5 -28.5t-28.5 -68.5v-143q0 -40 28.5 -68.5t68.5 -28.5t68.5 28t28.5 69v143q0 40 -28.5 68.5t-68.5 28.5z" />
    <glyph glyph-name="p" unicode="p" horiz-adv-x="486" 
d="M253 -6q-54 0 -97 37v-246q0 -14 -10.5 -24.5t-25.5 -10.5q-14 0 -24.5 10.5t-10.5 24.5v653q0 15 10.5 25.5t24.5 10.5q15 0 25.5 -10.5t10.5 -25.5v-2q45 38 97 38q70 0 119 -49.5t49 -119.5v-143q0 -70 -49 -119t-119 -49zM350 162v143q0 40 -28.5 68.5t-68.5 28.5
q-42 0 -69.5 -23t-27.5 -62v-167q0 -39 27.5 -62t69.5 -23q40 0 68.5 28.5t28.5 68.5z" />
    <glyph glyph-name="q" unicode="q" horiz-adv-x="481" 
d="M228 -6q-70 0 -119 49t-49 119v143q0 70 49 119.5t119 49.5q52 0 97 -38v2q0 15 10.5 25.5t25.5 10.5q14 0 24.5 -10.5t10.5 -25.5v-653q0 -14 -10.5 -24.5t-24.5 -10.5q-15 0 -25.5 10.5t-10.5 24.5v246q-43 -37 -97 -37zM131 305v-143q0 -40 28.5 -68.5t68.5 -28.5
q42 0 69.5 23t27.5 62v167q0 39 -27.5 62t-69.5 23q-40 0 -68.5 -28.5t-28.5 -68.5z" />
    <glyph glyph-name="r" unicode="r" horiz-adv-x="427" 
d="M238 476q70 0 117 -44t47 -115q0 -14 -10.5 -24.5t-25.5 -10.5t-25.5 10.5t-10.5 24.5q0 40 -28 65.5t-68 25.5q-41 0 -69 -26t-28 -65v-287q0 -15 -10.5 -25.5t-25.5 -10.5t-25.5 10.5t-10.5 25.5v409q0 14 10.5 24.5t25.5 10.5q14 0 25 -9.5t11 -25.5v-20q29 57 101 57
z" />
    <glyph glyph-name="s" unicode="s" horiz-adv-x="410" 
d="M216 -6q-123 0 -172 96q-7 13 -2 27t18 20q14 7 27.5 2.5t20.5 -17.5q28 -57 108 -57q82 0 82 62q0 27 -20.5 41t-78.5 33q-48 16 -72 27q-82 40 -82 117q0 55 44 92t110 37q56 0 97.5 -26.5t57.5 -72.5q5 -14 -1 -27.5t-20 -18.5t-27.5 1.5t-18.5 20.5q-19 52 -88 52
q-38 0 -62 -19q-21 -16 -21 -39q0 -18 8.5 -29.5t33.5 -23.5q14 -7 69 -25q63 -20 89 -39q54 -38 54 -101q0 -71 -59 -108q-40 -25 -95 -25z" />
    <glyph glyph-name="t" unicode="t" horiz-adv-x="434" 
d="M363 166q15 0 25.5 -10.5t10.5 -24.5v-2q0 -57 -38 -96t-93 -39t-92.5 39t-37.5 96v268h-62q-15 0 -25.5 10.5t-10.5 25.5q0 14 10.5 24.5t25.5 10.5h62v214q0 15 10.5 25.5t25.5 10.5q14 0 24.5 -10.5t10.5 -25.5v-214h102q15 0 25.5 -10.5t10.5 -24.5
q0 -15 -10.5 -25.5t-25.5 -10.5h-102v-268q0 -27 17 -45.5t42 -18.5t42.5 18.5t17.5 45.5v2q0 14 10.5 24.5t24.5 10.5z" />
    <glyph glyph-name="u" unicode="u" horiz-adv-x="461" 
d="M228 -6q-70 0 -119 49t-49 119v277q0 14 10.5 24.5t24.5 10.5q15 0 25.5 -10.5t10.5 -24.5v-277q0 -40 28.5 -68.5t68.5 -28.5q41 0 69 23t28 62v289q0 14 10.5 24.5t24.5 10.5q15 0 25.5 -10.5t10.5 -24.5v-410q0 -14 -10.5 -24.5t-25.5 -10.5q-14 0 -24.5 10.5
t-10.5 24.5v2q-43 -37 -97 -37z" />
    <glyph glyph-name="v" unicode="v" horiz-adv-x="427" 
d="M212 -6q-24 0 -33 24l-142 409q-6 18 5.5 32.5t28.5 14.5q25 0 33 -24l109 -312l109 312q8 24 33 24q19 0 29.5 -15.5t4.5 -31.5l-143 -409q-9 -24 -34 -24z" />
    <glyph glyph-name="w" unicode="w" horiz-adv-x="626" 
d="M558 474q17 0 28.5 -15.5t4.5 -32.5l-152 -409q-9 -23 -33 -23q-25 0 -33 22l-60 146l-60 -146q-3 -5 -11.5 -10.5t-15 -8.5t-7.5 -3q-24 0 -33 23l-151 409q-6 16 4 32t29 16q26 0 34 -23l120 -323l52 127l-69 177q-7 20 5.5 33.5t31 10t26.5 -23.5l45 -113l44 112
q8 20 27.5 22t32 -12.5t4.5 -35.5l-70 -170l53 -127l120 323q8 23 34 23z" />
    <glyph glyph-name="x" unicode="x" horiz-adv-x="421" 
d="M375 49q11 -17 1 -36t-31 -19q-19 0 -30 17l-105 162l-104 -162q-11 -17 -30 -17q-20 0 -31 18.5t1 36.5l122 190l-116 180q-11 17 -1.5 36t30.5 19q19 0 30 -16l99 -153l99 153q11 16 31 16t30.5 -18.5t-1.5 -36.5l-116 -180z" />
    <glyph glyph-name="y" unicode="y" horiz-adv-x="472" 
d="M361 474q15 0 25.5 -10.5t10.5 -24.5v-520q0 -70 -49.5 -119.5t-119.5 -49.5t-119 45t-49 114q0 14 10.5 24.5t25.5 10.5t25.5 -10.5t10.5 -24.5q0 -39 27.5 -63t68.5 -24q40 0 68.5 28t28.5 69v112q-42 -37 -97 -37q-69 0 -118.5 49t-49.5 119v277q0 14 10.5 24.5
t25.5 10.5t25.5 -10.5t10.5 -24.5v-277q0 -40 28 -68.5t68 -28.5q42 0 69.5 23t27.5 62v289q0 14 10.5 24.5t25.5 10.5z" />
    <glyph glyph-name="z" unicode="z" horiz-adv-x="393" 
d="M322 73q15 0 25.5 -10.5t10.5 -24.5q0 -15 -10.5 -25.5t-25.5 -10.5h-250q-21 0 -32 18q-9 18 1 37l216 342h-183q-15 0 -25.5 10.5t-10.5 24.5q0 15 10.5 25.5t25.5 10.5h247q21 0 32 -19q9 -17 -1 -36l-216 -342h186z" />
    <glyph glyph-name="braceleft" unicode="{" horiz-adv-x="397" 
d="M129 332q29 0 42 22t13 52v170q0 58 35 98q36 44 97 44q15 0 25.5 -10.5t10.5 -24.5q0 -15 -10.5 -25.5t-25.5 -10.5q-29 0 -44.5 -21t-15.5 -50v-170q0 -59 -33 -98q-1 -1 -3.5 -4t-4.5 -5q2 -1 4.5 -4t3.5 -5q33 -39 33 -103v-170q0 -29 15.5 -50t44.5 -21
q15 0 25.5 -10.5t10.5 -25.5t-10.5 -25.5t-25.5 -10.5q-59 0 -97 44q-34 40 -34 95v175q0 78 -56 78q-15 0 -24.5 9t-9.5 24t9.5 24t24.5 9z" />
    <glyph glyph-name="bar" unicode="|" horiz-adv-x="321" 
d="M160 -6q-14 0 -24.5 10.5t-10.5 25.5v652q0 15 10.5 25.5t24.5 10.5q15 0 25.5 -10.5t10.5 -25.5v-652q0 -15 -10.5 -25.5t-25.5 -10.5z" />
    <glyph glyph-name="braceright" unicode="}" horiz-adv-x="397" 
d="M268 332q15 0 24.5 -9t9.5 -24t-9.5 -24t-24.5 -9q-56 0 -56 -78v-175q0 -55 -34 -95q-38 -44 -97 -44q-15 0 -25.5 10.5t-10.5 25.5t10.5 25.5t25.5 10.5q29 0 44.5 21t15.5 50v170q0 64 33 103q1 2 3.5 5t4.5 4q-2 2 -4.5 5t-3.5 4q-33 39 -33 98v170q0 29 -15.5 50
t-44.5 21q-15 0 -25.5 10.5t-10.5 25.5q0 14 10.5 24.5t25.5 10.5q61 0 97 -44q35 -40 35 -98v-170q0 -30 13 -52t42 -22z" />
    <glyph glyph-name="asciitilde" unicode="~" horiz-adv-x="578" 
d="M70 241q0 18 13 28q47 36 105 36q48 0 114 -29q57 -24 90 -24t58 21q11 8 24 8q26 0 32.5 -25t-12.5 -39q-45 -36 -102 -36q-48 0 -116 28q-59 25 -89 25q-32 0 -59 -21q-10 -7 -22 -7q-15 0 -25.5 10t-10.5 25z" />
    <glyph glyph-name="exclamdown" unicode="&#xa1;" horiz-adv-x="282" 
d="M141 373q-23 0 -40 17t-17 40q0 22 17 38.5t40 16.5t39 -16.5t16 -38.5q0 -23 -16.5 -40t-38.5 -17zM141 270q14 0 24.5 -10.5t10.5 -25.5v-437q0 -15 -10.5 -25.5t-24.5 -10.5q-15 0 -25.5 10.5t-10.5 25.5v437q0 15 10.5 25.5t25.5 10.5z" />
    <glyph glyph-name="cent" unicode="&#xa2;" horiz-adv-x="440" 
d="M226 -86q-12 0 -21.5 9.5t-9.5 22.5v52q-58 11 -96.5 57.5t-38.5 108.5v140q0 61 38.5 108t96.5 58v56q0 13 9.5 22.5t21.5 9.5q13 0 22.5 -9.5t9.5 -22.5v-55q52 -10 90 -49t46 -91q2 -15 -6.5 -27t-22.5 -14q-15 -2 -27 6.5t-14 23.5q-5 28 -23 49t-43 29v-329
q55 18 66 79q2 15 14 23.5t27 6.5q14 -2 22.5 -14.5t6.5 -26.5q-9 -54 -47 -92.5t-89 -47.5v-51q0 -13 -9.5 -22.5t-22.5 -9.5zM131 164q0 -31 18 -56.5t46 -36.5v326q-28 -11 -46 -36.5t-18 -56.5v-140z" />
    <glyph glyph-name="sterling" unicode="&#xa3;" horiz-adv-x="493" 
d="M442 72q15 0 25.5 -10.5t10.5 -25.5t-10.5 -25.5t-25.5 -10.5h-386q-15 0 -25.5 10.5t-10.5 25.5t10.5 25.5t25.5 10.5q30 0 50.5 21t20.5 50v185h-71q-15 0 -25.5 10.5t-10.5 25.5q0 14 10.5 24.5t25.5 10.5h71v144q0 70 50.5 122.5t122.5 52.5q70 0 121 -51.5
t51 -123.5q0 -15 -10.5 -25.5t-24.5 -10.5q-15 0 -25.5 10.5t-10.5 25.5q0 44 -29 74t-72 30t-72 -30t-29 -74v-144h121q15 0 25.5 -10.5t10.5 -24.5q0 -15 -10.5 -25.5t-25.5 -10.5h-121v-185q0 -38 -19 -71h262z" />
    <glyph glyph-name="currency" unicode="&#xa4;" horiz-adv-x="588" 
d="M449 113l58 -58q16 -16 7.5 -38.5t-32.5 -22.5q-15 0 -26 11l-57 58q-47 -32 -105 -32t-105 32l-58 -58q-11 -11 -25 -11q-22 0 -32 21.5t6 39.5l58 58q-32 50 -32 105t32 105l-58 58q-10 11 -10 25t10 25q10 10 25 10q16 0 26 -10l58 -58q47 32 105 32t105 -32l57 58
q10 10 25 10q16 0 26 -10q11 -11 11 -25t-11 -25l-58 -58q32 -47 32 -105t-32 -105zM178 218q0 -47 34 -81.5t82 -34.5q46 0 81 34.5t35 81.5q0 46 -34.5 81t-81.5 35q-46 0 -81 -34.5t-35 -81.5z" />
    <glyph glyph-name="yen" unicode="&#xa5;" horiz-adv-x="517" 
d="M430 718q19 0 30 -16t3 -34l-139 -308h86q14 0 24.5 -10.5t10.5 -24.5q0 -15 -10.5 -25.5t-24.5 -10.5h-116v-55h116q14 0 24.5 -10.5t10.5 -25.5t-10.5 -25.5t-24.5 -10.5h-116v-132q0 -15 -10.5 -25.5t-25.5 -10.5q-14 0 -24.5 10.5t-10.5 25.5v132h-116
q-15 0 -25.5 10.5t-10.5 25.5t10.5 25.5t25.5 10.5h116v55h-116q-15 0 -25.5 10.5t-10.5 25.5q0 14 10.5 24.5t25.5 10.5h86l-139 308q-8 17 2.5 33.5t30.5 16.5q22 0 32 -21l139 -309l140 309q10 21 32 21z" />
    <glyph glyph-name="brokenbar" unicode="&#xa6;" horiz-adv-x="241" 
d="M120 454q-14 0 -24.5 10.5t-10.5 25.5v193q0 15 10.5 25.5t24.5 10.5q15 0 25.5 -10.5t10.5 -25.5v-193q0 -15 -10.5 -25.5t-25.5 -10.5zM120 -6q-14 0 -24.5 10.5t-10.5 25.5v193q0 15 10.5 25.5t24.5 10.5q15 0 25.5 -10.5t10.5 -25.5v-193q0 -15 -10.5 -25.5
t-25.5 -10.5z" />
    <glyph glyph-name="section" unicode="&#xa7;" horiz-adv-x="511" 
d="M365 145q63 -53 63 -126q0 -63 -47.5 -104t-114.5 -41q-60 0 -112 33.5t-63 91.5q-2 15 6 27t23 15q15 2 27 -6t14 -23q6 -31 38 -49t67 -18t63 19.5t28 54.5q0 23 -16 45t-31.5 33t-43.5 28q-55 34 -136 88q-64 43 -64 119q0 43 23 79t63 56q-53 51 -55 105v1
q0 64 46.5 103.5t114.5 41.5q56 0 101.5 -33t59.5 -88q4 -18 -6.5 -31t-28.5 -13q-27 0 -34 28q-7 27 -31 46.5t-61 19.5q-35 0 -62 -19t-27 -55q0 -37 51 -71l160 -105q65 -44 65 -123q0 -40 -21.5 -74t-58.5 -55zM170 272l87 -59q24 -17 55 -11.5t49 31.5q17 25 11 56
t-32 49l-86 58q-25 16 -55.5 11t-48.5 -31q-17 -25 -11.5 -56t31.5 -48z" />
    <glyph glyph-name="dieresis" unicode="&#xa8;" horiz-adv-x="473" 
d="M142 718q22 0 38 -16t16 -38q0 -21 -16 -36.5t-38 -15.5q-21 0 -36.5 15.5t-15.5 36.5q0 22 15.5 38t36.5 16zM329 718q22 0 38 -16t16 -38q0 -21 -16 -36.5t-38 -15.5q-21 0 -36.5 15.5t-15.5 36.5q0 22 15.5 38t36.5 16z" />
    <glyph glyph-name="copyright" unicode="&#xa9;" horiz-adv-x="850" 
d="M425 515q-26 0 -45 -19t-19 -45v-193q0 -26 19 -45t45 -19q25 0 43.5 16.5t20.5 40.5q2 14 13 23t25 8q14 -2 22.5 -13t7.5 -24q-5 -49 -43 -84t-89 -35q-55 0 -93.5 38.5t-38.5 93.5v193q0 55 38.5 93.5t93.5 38.5q50 0 89 -34t43 -85q1 -14 -7.5 -24.5t-22.5 -12.5
t-25.5 7t-12.5 23q-2 25 -20.5 41.5t-43.5 16.5zM680 609q105 -105 105 -255q0 -149 -105 -254q-104 -106 -255 -106t-255 106q-105 105 -105 254q0 150 105 255q106 106 255 106t255 -106zM425 62q121 0 206.5 85.5t85.5 206.5t-85.5 207t-206.5 86t-206.5 -86t-85.5 -207
t85.5 -206.5t206.5 -85.5z" />
    <glyph glyph-name="guillemotleft" unicode="&#xab;" horiz-adv-x="558" 
d="M448 145q-15 0 -25 10l-162 154q-11 9 -11 26q0 16 11 25l162 154q10 10 25 10q24 0 32.5 -23t-8.5 -39l-134 -127l134 -128q18 -17 8 -39.5t-32 -22.5zM243 145q-15 0 -25 10l-162 154q-11 9 -11 26q0 16 11 25l162 154q10 10 25 10q24 0 32.5 -23t-8.5 -39l-134 -127
l134 -128q18 -17 8 -39.5t-32 -22.5z" />
    <glyph glyph-name="logicalnot" unicode="&#xac;" horiz-adv-x="556" 
d="M428 184v159h-327q-15 0 -25.5 10t-10.5 25t10.5 25.5t25.5 10.5h363q15 0 25.5 -10.5t10.5 -25.5v-194q0 -15 -10.5 -25.5t-25.5 -10.5t-25.5 10.5t-10.5 25.5z" />
    <glyph glyph-name="registered" unicode="&#xae;" horiz-adv-x="846" 
d="M567 460q0 -70 -61 -106l57 -175q5 -15 -5 -30t-27 -15q-25 0 -33 24l-59 180h-61v-170q0 -14 -10 -24t-24 -10t-24 10t-10 24v381q0 14 10 24t24 10h101q50 0 86 -36t36 -87zM378 515v-109h67q22 0 38 16t16 38t-16 38.5t-38 16.5h-67zM686 609q105 -105 105 -255
q0 -149 -105 -254q-104 -106 -255 -106t-255 106q-105 105 -105 254q0 150 105 255q106 106 255 106t255 -106zM431 62q121 0 206.5 85.5t85.5 206.5t-85.5 207t-206.5 86t-206.5 -86t-85.5 -207t85.5 -206.5t206.5 -85.5z" />
    <glyph glyph-name="degree" unicode="&#xb0;" horiz-adv-x="450" 
d="M225 459q-54 0 -92 38t-38 91q0 54 38 92t92 38q53 0 91.5 -38t38.5 -92q0 -53 -38.5 -91t-91.5 -38zM225 665q-32 0 -54.5 -22.5t-22.5 -54.5q0 -31 22.5 -53.5t54.5 -22.5t54.5 22.5t22.5 53.5q0 32 -22.5 54.5t-54.5 22.5z" />
    <glyph glyph-name="plusminus" unicode="&#xb1;" horiz-adv-x="431" 
d="M381 35q0 15 -10.5 25.5t-25.5 10.5h-259q-15 0 -25.5 -10.5t-10.5 -25.5q0 -14 10.5 -24.5t25.5 -10.5h259q15 0 25.5 10.5t10.5 24.5zM345 307q15 0 25.5 -10.5t10.5 -25.5q0 -14 -10.5 -24.5t-25.5 -10.5h-94v-94q0 -15 -10.5 -25.5t-25.5 -10.5q-14 0 -24.5 10.5
t-10.5 25.5v94h-94q-15 0 -25.5 10.5t-10.5 24.5q0 15 10.5 25.5t25.5 10.5h94v94q0 15 10.5 25.5t24.5 10.5q15 0 25.5 -10.5t10.5 -25.5v-94h94z" />
    <glyph glyph-name="twosuperior" unicode="&#xb2;" horiz-adv-x="367" 
d="M263 360q14 0 24 -10t10 -24t-10 -24t-24 -10h-160q-19 0 -28 17t-1 35l125 198q25 40 25 66q0 17 -12 29.5t-29 12.5q-18 0 -30.5 -13t-12.5 -31q0 -14 -10.5 -24t-24.5 -10q-13 0 -23.5 10t-10.5 24q0 46 32.5 79t79.5 33q45 0 77.5 -32t32.5 -78q0 -47 -37 -103
l-91 -145h98z" />
    <glyph glyph-name="threesuperior" unicode="&#xb3;" horiz-adv-x="371" 
d="M266 712q21 0 30.5 -18.5t-2.5 -35.5l-72 -104q32 -11 51.5 -40t19.5 -64v-53q0 -46 -32.5 -78.5t-78.5 -32.5t-79 32.5t-33 78.5q0 14 10.5 24.5t24.5 10.5t24 -10.5t10 -24.5q0 -17 12.5 -30t30.5 -13t30.5 13t12.5 30v53q0 18 -12 30.5t-29 12.5q-8 0 -15 -3
q-23 -8 -38 12t-1 40l71 102h-54v-14q0 -14 -10 -24t-24 -10t-24 10t-10 24v48q0 14 10 24t24 10h153z" />
    <glyph glyph-name="acute" unicode="&#xb4;" horiz-adv-x="416" 
d="M140 580q-22 0 -31 20q-7 13 -2 27t18 21l134 67q13 7 27 2.5t21 -17.5q7 -14 2 -27.5t-18 -20.5l-134 -68q-8 -4 -17 -4z" />
    <glyph glyph-name="paragraph" unicode="&#xb6;" horiz-adv-x="532" 
d="M411 712q15 0 25.5 -10.5t10.5 -25.5v-647q0 -14 -10.5 -24.5t-25.5 -10.5t-25.5 10.5t-10.5 24.5v612h-74v-612q0 -14 -10.5 -24.5t-25.5 -10.5q-14 0 -24.5 10.5t-10.5 24.5v339h-36q-71 0 -121.5 50.5t-50.5 121.5t50.5 121.5t121.5 50.5h217z" />
    <glyph glyph-name="periodcentered" unicode="&#xb7;" horiz-adv-x="202" 
d="M100 390q23 0 40 -17t17 -40q0 -22 -17 -38.5t-40 -16.5q-22 0 -38.5 16t-16.5 39t16.5 40t38.5 17z" />
    <glyph glyph-name="cedilla" unicode="&#xb8;" horiz-adv-x="358" 
d="M167 -123q-19 0 -26.5 15t0.5 32l30 79q8 20 26 22.5t29 -11.5t3 -33l-23 -58q35 -2 65.5 -29t30.5 -83q0 -50 -35.5 -85.5t-85.5 -35.5q-52 0 -87 29.5t-35 78.5q0 20 15 28t30 -0.5t15 -27.5q0 -23 17.5 -35.5t44.5 -12.5q25 0 43 18t18 43q0 28 -18.5 47t-56.5 19z
" />
    <glyph glyph-name="onesuperior" unicode="&#xb9;" horiz-adv-x="352" 
d="M282 326q0 -14 -10 -24t-24 -10h-138q-14 0 -24.5 10t-10.5 24t10.5 24t24.5 10h35v230l-15 -17q-9 -11 -23 -12.5t-25 7.5t-12 23.5t8 25.5l75 89q12 12 26 12q13 0 23.5 -10t10.5 -24v-324h35q14 0 24 -10t10 -24z" />
    <glyph glyph-name="ordmasculine" unicode="&#xba;" horiz-adv-x="290" 
 />
    <glyph glyph-name="guillemotright" unicode="&#xbb;" horiz-adv-x="548" 
d="M100 151q-22 0 -32 22.5t8 39.5l134 128l-134 127q-17 16 -8.5 39t32.5 23q15 0 25 -10l162 -154q11 -9 11 -25q0 -17 -11 -26l-162 -154q-10 -10 -25 -10zM305 151q-22 0 -32 22.5t8 39.5l134 128l-134 127q-17 16 -8.5 39t32.5 23q15 0 25 -10l162 -154q11 -9 11 -25
q0 -17 -11 -26l-162 -154q-10 -10 -25 -10z" />
    <glyph glyph-name="onequarter" unicode="&#xbc;" horiz-adv-x="835" 
d="M619 718q20 0 31 -17.5t0 -36.5l-394 -652q-10 -18 -31 -18q-19 0 -30.5 18t-0.5 36l395 653q11 17 30 17zM282 326q0 -14 -10 -24t-24 -10h-138q-14 0 -24.5 10t-10.5 24t10.5 24t24.5 10h35v230l-15 -17q-9 -11 -23 -12.5t-25 7.5t-12 23.5t8 25.5l75 89q12 12 26 12
q13 0 23.5 -10t10.5 -24v-324h35q14 0 24 -10t10 -24zM726 140q14 0 24 -10t10 -24t-10 -24t-24 -10h-18v-44q0 -14 -10 -24t-24 -10t-24 10t-10 24v44h-123q-13 0 -24 9.5t-11 23.5q0 9 5 17l148 280q9 18 30 18q17 0 28 -16t2 -34l-121 -230h66v30q0 14 10 24t24 10
t24 -10t10 -24v-30h18z" />
    <glyph glyph-name="onehalf" unicode="&#xbd;" horiz-adv-x="842" 
d="M738 68q14 0 24 -10t10 -24t-10 -24t-24 -10h-160q-18 0 -28.5 17.5t-0.5 34.5l125 198q25 40 25 66q0 17 -12 29.5t-29 12.5q-18 0 -30.5 -13t-12.5 -31q0 -14 -10.5 -24t-24.5 -10t-24 10t-10 24q0 46 33 79t79 33q45 0 77.5 -32t32.5 -78q0 -47 -37 -103l-91 -145h98z
M619 718q20 0 31 -17.5t0 -36.5l-394 -652q-10 -18 -31 -18q-19 0 -30.5 18t-0.5 36l395 653q11 17 30 17zM282 326q0 -14 -10 -24t-24 -10h-138q-14 0 -24.5 10t-10.5 24t10.5 24t24.5 10h35v230l-15 -17q-9 -11 -23 -12.5t-25 7.5t-12 23.5t8 25.5l75 89q12 12 26 12
q13 0 23.5 -10t10.5 -24v-324h35q14 0 24 -10t10 -24z" />
    <glyph glyph-name="threequarters" unicode="&#xbe;" horiz-adv-x="855" 
d="M750 420q21 0 30.5 -18.5t-2.5 -35.5l-72 -104q23 -8 40 -26q31 -33 31 -78v-53q0 -46 -32.5 -78.5t-78.5 -32.5t-79 32.5t-33 78.5q0 14 10.5 24.5t24.5 10.5t24 -10.5t10 -24.5q0 -17 12.5 -30t30.5 -13t30.5 13t12.5 30v53q0 18 -12 30.5t-29 12.5q-8 0 -15 -3
q-23 -8 -38 12t-1 40l71 102h-54v-14q0 -14 -10 -24t-24 -10t-24 10t-10 24v48q0 14 10 24t24 10h153zM619 718q20 0 31 -17.5t0 -36.5l-394 -652q-10 -18 -31 -18q-19 0 -30.5 18t-0.5 36l395 653q11 17 30 17zM282 326q0 -14 -10 -24t-24 -10h-138q-14 0 -24.5 10
t-10.5 24t10.5 24t24.5 10h35v230l-15 -17q-9 -11 -23 -12.5t-25 7.5t-12 23.5t8 25.5l75 89q12 12 26 12q13 0 23.5 -10t10.5 -24v-324h35q14 0 24 -10t10 -24z" />
    <glyph glyph-name="questiondown" unicode="&#xbf;" horiz-adv-x="411" 
d="M221 369q-23 0 -40 16.5t-17 39.5t17 39.5t40 16.5t39 -16.5t16 -39.5t-16.5 -39.5t-38.5 -16.5zM96 -190q-51 51 -51 119q0 35 14.5 69t28.5 52t40 48q19 22 28.5 34t18.5 30.5t9 35.5v65q0 15 10.5 25.5t25.5 10.5t25.5 -10.5t10.5 -25.5v-65q0 -29 -13 -58.5
t-25.5 -46t-36.5 -42.5q-22 -26 -32.5 -39.5t-21.5 -37t-11 -45.5q0 -38 30.5 -69.5t73.5 -31.5t73.5 30.5t30.5 73.5q0 15 10.5 25.5t25.5 10.5t25.5 -10.5t10.5 -25.5q0 -72 -51.5 -123.5t-124.5 -51.5q-71 0 -124 53z" />
    <glyph glyph-name="Agrave" unicode="&#xc0;" horiz-adv-x="519" 
d="M375 796q-6 -13 -20.5 -18t-27.5 2l-145 71q-13 7 -18 20.5t2 27.5q7 13 21 17.5t27 -2.5l145 -70q13 -7 18 -21t-2 -27zM492 40q4 -16 -6.5 -31t-28.5 -15q-25 0 -33 26l-45 146h-238l-45 -146q-9 -26 -34 -26q-17 0 -28.5 14.5t-5.5 31.5l197 653q8 25 35 25
q26 0 34 -25zM162 237h195l-97 323z" />
    <glyph glyph-name="Aacute" unicode="&#xc1;" horiz-adv-x="519" 
d="M166 796q-7 13 -2 27t18 21l145 70q13 7 27 2.5t21 -17.5q7 -14 2 -27.5t-18 -20.5l-145 -71q-13 -7 -27.5 -2t-20.5 18zM492 40q4 -16 -6.5 -31t-28.5 -15q-25 0 -33 26l-45 146h-238l-45 -146q-9 -26 -34 -26q-17 0 -28.5 14.5t-5.5 31.5l197 653q8 25 35 25
q26 0 34 -25zM162 237h195l-97 323z" />
    <glyph glyph-name="Acircumflex" unicode="&#xc2;" horiz-adv-x="519" 
d="M492 40q4 -16 -6.5 -31t-28.5 -15q-25 0 -33 26l-45 146h-238l-45 -146q-9 -26 -34 -26q-17 0 -28.5 14.5t-5.5 31.5l197 653q8 25 35 25q26 0 34 -25zM162 237h195l-97 323zM146 838l91 80q10 8 23 8t24 -8l91 -80q19 -16 9 -39.5t-33 -23.5q-13 0 -23 9l-68 59l-67 -59
q-10 -9 -24 -9q-24 0 -32.5 24t9.5 39z" />
    <glyph glyph-name="Atilde" unicode="&#xc3;" horiz-adv-x="519" 
d="M492 40q4 -16 -6.5 -31t-28.5 -15q-25 0 -33 26l-45 146h-238l-45 -146q-9 -26 -34 -26q-17 0 -28.5 14.5t-5.5 31.5l197 653q8 25 35 25q26 0 34 -25zM162 237h195l-97 323zM357 884q15 0 23.5 -12t8.5 -28q0 -26 -19 -47.5t-49 -21.5q-26 0 -60 22l-49 32q-7 4 -14 4
q-12 0 -10 -12q3 -14 -5 -26q-9 -12 -23 -12q-15 0 -23.5 12t-8.5 28q0 27 19 48t49 21q27 0 61 -21q5 -3 22.5 -14.5t27.5 -17.5q8 -4 13 -4q11 0 9 12q-3 15 6 27q8 10 22 10z" />
    <glyph glyph-name="Adieresis" unicode="&#xc4;" horiz-adv-x="519" 
d="M165 881q22 0 38 -16t16 -38q0 -21 -16 -36.5t-38 -15.5q-21 0 -36.5 15.5t-15.5 36.5q0 22 15.5 38t36.5 16zM352 881q22 0 38 -16t16 -38q0 -21 -16 -36.5t-38 -15.5q-21 0 -36.5 15.5t-15.5 36.5q0 22 15.5 38t36.5 16zM492 40q4 -16 -6.5 -31t-28.5 -15q-25 0 -33 26
l-45 146h-238l-45 -146q-9 -26 -34 -26q-17 0 -28.5 14.5t-5.5 31.5l197 653q8 25 35 25q26 0 34 -25zM162 237h195l-97 323z" />
    <glyph glyph-name="Aring" unicode="&#xc5;" horiz-adv-x="519" 
d="M260 767q-38 0 -64.5 26.5t-26.5 64.5t26.5 64.5t64.5 26.5t64.5 -26.5t26.5 -64.5t-26.5 -64.5t-64.5 -26.5zM260 894q-15 0 -25.5 -10.5t-10.5 -25.5q0 -16 10.5 -26t25.5 -10t25.5 10t10.5 26q0 15 -10.5 25.5t-25.5 10.5zM492 40q4 -16 -6.5 -31t-28.5 -15
q-25 0 -33 26l-45 146h-238l-45 -146q-9 -26 -34 -26q-17 0 -28.5 14.5t-5.5 31.5l197 653q8 25 35 25q26 0 34 -25zM162 237h195l-97 323z" />
    <glyph glyph-name="AE" unicode="&#xc6;" horiz-adv-x="773" 
d="M708 71q14 0 24.5 -10.5t10.5 -24.5q0 -15 -10.5 -25.5t-24.5 -10.5h-288q-15 0 -25.5 10.5t-10.5 25.5v129h-238l-50 -147q-8 -24 -35 -24q-17 0 -27.5 15t-4.5 32l218 647q7 24 33 24h425q14 0 24.5 -10.5t10.5 -25.5q0 -14 -10.5 -24.5t-24.5 -10.5h-250v-250h221
q15 0 25 -10.5t10 -24.5q0 -15 -10 -25.5t-25 -10.5h-221v-249h253zM170 237h214v404h-78z" />
    <glyph glyph-name="Ccedilla" unicode="&#xc7;" horiz-adv-x="508" 
d="M261 -98q-19 0 -25.5 14t0.5 31l19 50q-76 7 -128 63.5t-52 134.5v324q0 82 58.5 140.5t140.5 58.5q76 0 133 -52.5t65 -126.5q2 -14 -7.5 -26t-24.5 -13q-14 -2 -26 7.5t-13 24.5q-5 49 -41.5 82t-85.5 33q-52 0 -90 -37.5t-38 -90.5v-324q0 -53 38 -90.5t90 -37.5
q49 0 85.5 33t41.5 82q1 15 13 24.5t26 7.5q15 -1 24.5 -13t7.5 -26q-7 -64 -49 -111t-102 -62l-22 -56q33 -2 62.5 -28t29.5 -80q0 -48 -34 -82t-82 -34q-50 0 -83.5 28.5t-33.5 75.5q0 19 14 26.5t28.5 -0.5t14.5 -26q0 -23 17 -34.5t43 -11.5q23 0 40.5 17.5t17.5 40.5
q0 27 -18 45.5t-54 18.5z" />
    <glyph glyph-name="Egrave" unicode="&#xc8;" horiz-adv-x="474" 
d="M408 72q15 0 25.5 -10.5t10.5 -25.5t-10.5 -25.5t-25.5 -10.5h-288q-14 0 -24.5 10.5t-10.5 25.5v641q0 14 10.5 24.5t24.5 10.5h285q15 0 25.5 -10.5t10.5 -24.5q0 -15 -10.5 -25.5t-25.5 -10.5h-249v-222h220q15 0 25.5 -10.5t10.5 -25.5q0 -14 -10.5 -24.5
t-25.5 -10.5h-220v-276h252zM368 796q-6 -13 -20.5 -18t-27.5 2l-145 71q-13 7 -18 20.5t2 27.5q7 13 21 17.5t27 -2.5l145 -70q13 -7 18 -21t-2 -27z" />
    <glyph glyph-name="Eacute" unicode="&#xc9;" horiz-adv-x="474" 
d="M408 72q15 0 25.5 -10.5t10.5 -25.5t-10.5 -25.5t-25.5 -10.5h-288q-14 0 -24.5 10.5t-10.5 25.5v641q0 14 10.5 24.5t24.5 10.5h285q15 0 25.5 -10.5t10.5 -24.5q0 -15 -10.5 -25.5t-25.5 -10.5h-249v-222h220q15 0 25.5 -10.5t10.5 -25.5q0 -14 -10.5 -24.5
t-25.5 -10.5h-220v-276h252zM159 796q-7 13 -2 27t18 21l145 70q13 7 27 2.5t21 -17.5q7 -14 2 -27.5t-18 -20.5l-145 -71q-13 -7 -27.5 -2t-20.5 18z" />
    <glyph glyph-name="Ecircumflex" unicode="&#xca;" horiz-adv-x="474" 
d="M408 72q15 0 25.5 -10.5t10.5 -25.5t-10.5 -25.5t-25.5 -10.5h-288q-14 0 -24.5 10.5t-10.5 25.5v641q0 14 10.5 24.5t24.5 10.5h285q15 0 25.5 -10.5t10.5 -24.5q0 -15 -10.5 -25.5t-25.5 -10.5h-249v-222h220q15 0 25.5 -10.5t10.5 -25.5q0 -14 -10.5 -24.5
t-25.5 -10.5h-220v-276h252zM146 838l91 80q10 8 23 8t24 -8l91 -80q19 -16 9 -39.5t-33 -23.5q-13 0 -23 9l-68 59l-67 -59q-10 -9 -24 -9q-24 0 -32.5 24t9.5 39z" />
    <glyph glyph-name="Edieresis" unicode="&#xcb;" horiz-adv-x="474" 
d="M408 72q15 0 25.5 -10.5t10.5 -25.5t-10.5 -25.5t-25.5 -10.5h-288q-14 0 -24.5 10.5t-10.5 25.5v641q0 14 10.5 24.5t24.5 10.5h285q15 0 25.5 -10.5t10.5 -24.5q0 -15 -10.5 -25.5t-25.5 -10.5h-249v-222h220q15 0 25.5 -10.5t10.5 -25.5q0 -14 -10.5 -24.5
t-25.5 -10.5h-220v-276h252zM172 881q22 0 38 -16t16 -38q0 -21 -16 -36.5t-38 -15.5q-21 0 -36.5 15.5t-15.5 36.5q0 22 15.5 38t36.5 16zM359 881q22 0 38 -16t16 -38q0 -21 -16 -36.5t-38 -15.5q-21 0 -36.5 15.5t-15.5 36.5q0 22 15.5 38t36.5 16z" />
    <glyph glyph-name="Igrave" unicode="&#xcc;" horiz-adv-x="436" 
d="M320 796q-6 -13 -20.5 -18t-27.5 2l-145 71q-13 7 -18 20.5t2 27.5q7 13 21 17.5t27 -2.5l145 -70q13 -7 18 -21t-2 -27zM343 72q15 0 25.5 -10.5t10.5 -25.5t-10.5 -25.5t-25.5 -10.5h-250q-15 0 -25.5 10.5t-10.5 25.5t10.5 25.5t25.5 10.5h90v568h-90
q-15 0 -25.5 10.5t-10.5 25.5t10.5 25.5t25.5 10.5h250q15 0 25.5 -10.5t10.5 -25.5t-10.5 -25.5t-25.5 -10.5h-89v-568h89z" />
    <glyph glyph-name="Iacute" unicode="&#xcd;" horiz-adv-x="436" 
d="M111 796q-7 13 -2 27t18 21l145 70q13 7 27 2.5t21 -17.5q7 -14 2 -27.5t-18 -20.5l-145 -71q-13 -7 -27.5 -2t-20.5 18zM343 72q15 0 25.5 -10.5t10.5 -25.5t-10.5 -25.5t-25.5 -10.5h-250q-15 0 -25.5 10.5t-10.5 25.5t10.5 25.5t25.5 10.5h90v568h-90
q-15 0 -25.5 10.5t-10.5 25.5t10.5 25.5t25.5 10.5h250q15 0 25.5 -10.5t10.5 -25.5t-10.5 -25.5t-25.5 -10.5h-89v-568h89z" />
    <glyph glyph-name="Icircumflex" unicode="&#xce;" horiz-adv-x="436" 
d="M104 838l91 80q10 8 23 8t24 -8l91 -80q19 -16 9 -39.5t-33 -23.5q-13 0 -23 9l-68 59l-67 -59q-10 -9 -24 -9q-24 0 -32.5 24t9.5 39zM343 72q15 0 25.5 -10.5t10.5 -25.5t-10.5 -25.5t-25.5 -10.5h-250q-15 0 -25.5 10.5t-10.5 25.5t10.5 25.5t25.5 10.5h90v568h-90
q-15 0 -25.5 10.5t-10.5 25.5t10.5 25.5t25.5 10.5h250q15 0 25.5 -10.5t10.5 -25.5t-10.5 -25.5t-25.5 -10.5h-89v-568h89z" />
    <glyph glyph-name="Idieresis" unicode="&#xcf;" horiz-adv-x="436" 
d="M124 881q22 0 38 -16t16 -38q0 -21 -16 -36.5t-38 -15.5q-21 0 -36.5 15.5t-15.5 36.5q0 22 15.5 38t36.5 16zM311 881q22 0 38 -16t16 -38q0 -21 -16 -36.5t-38 -15.5q-21 0 -36.5 15.5t-15.5 36.5q0 22 15.5 38t36.5 16zM343 72q15 0 25.5 -10.5t10.5 -25.5
t-10.5 -25.5t-25.5 -10.5h-250q-15 0 -25.5 10.5t-10.5 25.5t10.5 25.5t25.5 10.5h90v568h-90q-15 0 -25.5 10.5t-10.5 25.5t10.5 25.5t25.5 10.5h250q15 0 25.5 -10.5t10.5 -25.5t-10.5 -25.5t-25.5 -10.5h-89v-568h89z" />
    <glyph glyph-name="Eth" unicode="&#xd0;" horiz-adv-x="539" 
d="M270 0h-149q-15 0 -25.5 10.5t-10.5 25.5v292h-39q-13 0 -22 9t-9 23t9 23.5t22 9.5h39v284q0 14 10.5 24.5t25.5 10.5h149q82 0 140.5 -58t58.5 -141v-313q0 -83 -58.5 -141.5t-140.5 -58.5zM270 360q0 -14 -9 -23t-22 -9h-83v-256h114q53 0 90.5 37.5t37.5 90.5v313
q0 53 -37.5 90.5t-90.5 37.5h-114v-248h83q13 0 22 -9.5t9 -23.5z" />
    <glyph glyph-name="Ntilde" unicode="&#xd1;" horiz-adv-x="571" 
d="M383 884q15 0 23.5 -12t8.5 -28q0 -26 -19 -47.5t-49 -21.5q-26 0 -60 22l-49 32q-7 4 -14 4q-12 0 -10 -12q3 -14 -5 -26q-9 -12 -23 -12q-15 0 -23.5 12t-8.5 28q0 27 19 48t49 21q27 0 61 -21q5 -3 22.5 -14.5t27.5 -17.5q8 -4 13 -4q11 0 9 12q-3 15 6 27q8 10 22 10
zM450 -6q5 0 8 1q28 7 28 35v652q0 15 -10.5 25.5t-25.5 10.5t-25.5 -10.5t-10.5 -25.5v-503l-262 519q-10 20 -32 20q-14 0 -24.5 -10.5t-10.5 -25.5v-652q0 -15 10.5 -25.5t24.5 -10.5q15 0 25.5 10.5t10.5 25.5v503l262 -519q9 -20 32 -20z" />
    <glyph glyph-name="Ograve" unicode="&#xd2;" horiz-adv-x="538" 
d="M269 -6q-83 0 -141 58t-58 141v326q0 82 58.5 140.5t140.5 58.5t140.5 -58.5t58.5 -140.5v-326q0 -83 -58 -141t-141 -58zM269 647q-53 0 -90.5 -37.5t-37.5 -90.5v-326q0 -53 37.5 -90.5t90.5 -37.5t90.5 37.5t37.5 90.5v326q0 53 -37.5 90.5t-90.5 37.5zM375 796
q-6 -13 -20.5 -18t-27.5 2l-145 71q-13 7 -18 20.5t2 27.5q7 13 21 17.5t27 -2.5l145 -70q13 -7 18 -21t-2 -27z" />
    <glyph glyph-name="Oacute" unicode="&#xd3;" horiz-adv-x="538" 
d="M269 -6q-83 0 -141 58t-58 141v326q0 82 58.5 140.5t140.5 58.5t140.5 -58.5t58.5 -140.5v-326q0 -83 -58 -141t-141 -58zM269 647q-53 0 -90.5 -37.5t-37.5 -90.5v-326q0 -53 37.5 -90.5t90.5 -37.5t90.5 37.5t37.5 90.5v326q0 53 -37.5 90.5t-90.5 37.5zM166 796
q-7 13 -2 27t18 21l145 70q13 7 27 2.5t21 -17.5q7 -14 2 -27.5t-18 -20.5l-145 -71q-13 -7 -27.5 -2t-20.5 18z" />
    <glyph glyph-name="Ocircumflex" unicode="&#xd4;" horiz-adv-x="538" 
d="M269 -6q-83 0 -141 58t-58 141v326q0 82 58.5 140.5t140.5 58.5t140.5 -58.5t58.5 -140.5v-326q0 -83 -58 -141t-141 -58zM269 647q-53 0 -90.5 -37.5t-37.5 -90.5v-326q0 -53 37.5 -90.5t90.5 -37.5t90.5 37.5t37.5 90.5v326q0 53 -37.5 90.5t-90.5 37.5zM155 838l91 80
q10 8 23 8t24 -8l91 -80q19 -16 9 -39.5t-33 -23.5q-12 0 -23 9l-68 59l-67 -59q-11 -9 -24 -9q-24 0 -32.5 24t9.5 39z" />
    <glyph glyph-name="Otilde" unicode="&#xd5;" horiz-adv-x="538" 
d="M269 -6q83 0 141 58t58 141v326q0 82 -58.5 140.5t-140.5 58.5t-140.5 -58.5t-58.5 -140.5v-326q0 -83 58 -141t141 -58zM269 647q53 0 90.5 -37.5t37.5 -90.5v-326q0 -53 -37.5 -90.5t-90.5 -37.5t-90.5 37.5t-37.5 90.5v326q0 53 37.5 90.5t90.5 37.5zM368 884
q16 0 24 -12t8 -28q0 -26 -19 -47.5t-49 -21.5q-26 0 -60 22l-49 32q-7 4 -14 4q-11 0 -10 -12q3 -14 -5 -26q-9 -12 -23 -12q-15 0 -23.5 12t-8.5 28q0 27 19 48t49 21q27 0 61 -21q5 -3 22 -14.5t28 -17.5q8 -4 13 -4q11 0 9 12q-3 15 6 27q8 10 22 10z" />
    <glyph glyph-name="Odieresis" unicode="&#xd6;" horiz-adv-x="538" 
d="M175 881q22 0 38 -16t16 -38q0 -21 -16 -36.5t-38 -15.5q-21 0 -36.5 15.5t-15.5 36.5q0 22 15.5 38t36.5 16zM362 881q22 0 38 -16t16 -38q0 -21 -16 -36.5t-38 -15.5q-21 0 -36.5 15.5t-15.5 36.5q0 22 15.5 38t36.5 16zM269 -6q-83 0 -141 58t-58 141v326
q0 82 58.5 140.5t140.5 58.5t140.5 -58.5t58.5 -140.5v-326q0 -83 -58 -141t-141 -58zM269 647q-53 0 -90.5 -37.5t-37.5 -90.5v-326q0 -53 37.5 -90.5t90.5 -37.5t90.5 37.5t37.5 90.5v326q0 53 -37.5 90.5t-90.5 37.5z" />
    <glyph glyph-name="multiply" unicode="&#xd7;" horiz-adv-x="371" 
d="M236 310l74 -73q10 -11 10 -26t-10 -25t-25 -10t-25 10l-74 74l-74 -74q-10 -10 -26 -10q-15 0 -25 10q-11 10 -11 25t11 26l74 73l-74 75q-11 11 -11 25t11 25t26 11t25 -11l74 -74l74 74q10 11 25 11t25 -11t10 -25t-10 -25z" />
    <glyph glyph-name="Oslash" unicode="&#xd8;" horiz-adv-x="590" 
d="M501 763q13 -7 17.5 -20.5t-2.5 -27.5l-49 -97q27 -46 27 -99v-326q0 -83 -58 -141t-141 -58q-67 0 -122 42l-36 -71q-5 -12 -20 -17.5t-28 1.5t-17.5 20.5t2.5 27.5l49 97q-27 46 -27 99v326q0 83 58 141t141 58q67 0 122 -42l36 71q6 13 20.5 18t27.5 -2zM167 193
q0 -7 1 -10l216 428q-38 36 -89 36q-53 0 -90.5 -37.5t-37.5 -90.5v-326zM423 519q0 7 -1 10l-216 -428q38 -36 89 -36q53 0 90.5 37.5t37.5 90.5v326z" />
    <glyph glyph-name="Ugrave" unicode="&#xd9;" horiz-adv-x="568" 
d="M388 796q-6 -13 -20.5 -18t-27.5 2l-145 71q-13 7 -18 20.5t2 27.5q7 13 21 17.5t27 -2.5l145 -70q13 -7 18 -21t-2 -27zM284 -6q-82 0 -140.5 58.5t-58.5 140.5v489q0 15 10.5 25.5t25.5 10.5q14 0 24.5 -10.5t10.5 -25.5v-489q0 -52 37.5 -89.5t90.5 -37.5t90.5 37
t37.5 90v489q0 15 10.5 25.5t25.5 10.5q14 0 24.5 -10.5t10.5 -25.5v-489q0 -82 -58.5 -140.5t-140.5 -58.5z" />
    <glyph glyph-name="Uacute" unicode="&#xda;" horiz-adv-x="568" 
d="M179 796q-7 13 -2 27t18 21l145 70q13 7 27 2.5t21 -17.5q7 -14 2 -27.5t-18 -20.5l-145 -71q-13 -7 -27.5 -2t-20.5 18zM284 -6q-82 0 -140.5 58.5t-58.5 140.5v489q0 15 10.5 25.5t25.5 10.5q14 0 24.5 -10.5t10.5 -25.5v-489q0 -52 37.5 -89.5t90.5 -37.5t90.5 37
t37.5 90v489q0 15 10.5 25.5t25.5 10.5q14 0 24.5 -10.5t10.5 -25.5v-489q0 -82 -58.5 -140.5t-140.5 -58.5z" />
    <glyph glyph-name="Ucircumflex" unicode="&#xdb;" horiz-adv-x="568" 
d="M170 838l91 80q10 8 23 8t24 -8l91 -80q19 -16 9 -39.5t-33 -23.5q-13 0 -23 9l-68 59l-67 -59q-11 -9 -24 -9q-24 0 -32.5 24t9.5 39zM284 -6q-82 0 -140.5 58.5t-58.5 140.5v489q0 15 10.5 25.5t25.5 10.5q14 0 24.5 -10.5t10.5 -25.5v-489q0 -52 37.5 -89.5
t90.5 -37.5t90.5 37t37.5 90v489q0 15 10.5 25.5t25.5 10.5q14 0 24.5 -10.5t10.5 -25.5v-489q0 -82 -58.5 -140.5t-140.5 -58.5z" />
    <glyph glyph-name="Udieresis" unicode="&#xdc;" horiz-adv-x="568" 
d="M189 881q22 0 38 -16t16 -38q0 -21 -16 -36.5t-38 -15.5q-21 0 -36.5 15.5t-15.5 36.5q0 22 15.5 38t36.5 16zM376 881q22 0 38 -16t16 -38q0 -21 -16 -36.5t-38 -15.5q-21 0 -36.5 15.5t-15.5 36.5q0 22 15.5 38t36.5 16zM284 -6q-82 0 -140.5 58.5t-58.5 140.5v489
q0 15 10.5 25.5t25.5 10.5q14 0 24.5 -10.5t10.5 -25.5v-489q0 -52 37.5 -89.5t90.5 -37.5t90.5 37t37.5 90v489q0 15 10.5 25.5t25.5 10.5q14 0 24.5 -10.5t10.5 -25.5v-489q0 -82 -58.5 -140.5t-140.5 -58.5z" />
    <glyph glyph-name="Yacute" unicode="&#xdd;" horiz-adv-x="476" 
d="M134 796q-7 13 -2 27t18 21l145 70q13 7 27 2.5t21 -17.5q7 -14 2 -27.5t-18 -20.5l-145 -71q-13 -7 -27.5 -2t-20.5 18zM409 718q19 0 30 -16t3 -34l-169 -374v-264q0 -15 -10 -25.5t-25 -10.5t-25.5 10.5t-10.5 25.5v264l-168 374q-8 17 2 33.5t30 16.5q23 0 33 -21
l139 -309l139 309q10 21 32 21z" />
    <glyph glyph-name="Thorn" unicode="&#xde;" horiz-adv-x="544" 
d="M294 551q79 0 134.5 -55.5t55.5 -134.5t-55.5 -134.5t-134.5 -55.5h-133v-142q0 -14 -10.5 -24.5t-25.5 -10.5q-14 0 -24.5 10.5t-10.5 24.5v653q0 15 10.5 25.5t24.5 10.5q15 0 25.5 -10.5t10.5 -25.5v-131h133zM294 242q49 0 84 35t35 84t-35 84t-84 35h-133v-238h133z
" />
    <glyph glyph-name="germandbls" unicode="&#xdf;" horiz-adv-x="537" 
d="M385 390q44 -29 70.5 -76.5t26.5 -102.5q0 -86 -61.5 -148.5t-147.5 -62.5h-24q-15 0 -25.5 10.5t-10.5 25.5t10.5 25.5t25.5 10.5h24q57 0 97 41t40 98t-40 98.5t-97 41.5h-24q-15 0 -25.5 10.5t-10.5 25.5q0 14 10.5 24.5t25.5 10.5h24q46 0 78.5 33t32.5 80
q0 46 -32.5 79t-78.5 33h-10q-46 0 -79 -33t-33 -79v-499q0 -15 -10.5 -25.5t-25.5 -10.5q-14 0 -24.5 10.5t-10.5 25.5v499q0 76 53.5 129.5t129.5 53.5h10q76 0 129.5 -53.5t53.5 -129.5q0 -91 -71 -145z" />
    <glyph glyph-name="agrave" unicode="&#xe0;" horiz-adv-x="466" 
d="M339 587q-6 -13 -20.5 -18t-27.5 2l-145 71q-13 7 -18 20.5t2 27.5q7 13 21 17.5t27 -2.5l145 -70q13 -7 18 -21t-2 -27zM360 474q15 0 25.5 -10.5t10.5 -24.5v-409q0 -15 -10.5 -25.5t-25.5 -10.5q-14 0 -24.5 10.5t-10.5 25.5v2q-45 -38 -97 -38q-70 0 -119 49.5
t-49 119.5v143q0 70 49 119t119 49q54 0 97 -37v2q0 14 10.5 24.5t24.5 10.5zM228 66q41 0 69 22.5t28 61.5v168q0 39 -28 62t-69 23q-40 0 -68.5 -28.5t-28.5 -68.5v-143q0 -41 28.5 -69t68.5 -28z" />
    <glyph glyph-name="aacute" unicode="&#xe1;" horiz-adv-x="466" 
d="M360 474q15 0 25.5 -10.5t10.5 -24.5v-409q0 -15 -10.5 -25.5t-25.5 -10.5q-14 0 -24.5 10.5t-10.5 25.5v2q-45 -38 -97 -38q-70 0 -119 49.5t-49 119.5v143q0 70 49 119t119 49q54 0 97 -37v2q0 14 10.5 24.5t24.5 10.5zM228 66q41 0 69 22.5t28 61.5v168q0 39 -28 62
t-69 23q-40 0 -68.5 -28.5t-28.5 -68.5v-143q0 -41 28.5 -69t68.5 -28zM124 588q-7 13 -2 27t18 21l145 70q13 7 27 2.5t21 -17.5q7 -14 2 -27.5t-18 -20.5l-145 -71q-13 -7 -27.5 -2t-20.5 18z" />
    <glyph glyph-name="acircumflex" unicode="&#xe2;" horiz-adv-x="466" 
d="M127 614l87 75q8 8 21 8t23 -8l86 -75q18 -16 9 -38t-31 -22q-12 0 -22 8l-65 56l-63 -56q-11 -8 -23 -8q-23 0 -30.5 23t8.5 37zM360 474q15 0 25.5 -10.5t10.5 -24.5v-409q0 -15 -10.5 -25.5t-25.5 -10.5q-14 0 -24.5 10.5t-10.5 25.5v2q-45 -38 -97 -38
q-70 0 -119 49.5t-49 119.5v143q0 70 49 119t119 49q54 0 97 -37v2q0 14 10.5 24.5t24.5 10.5zM228 66q41 0 69 22.5t28 61.5v168q0 39 -28 62t-69 23q-40 0 -68.5 -28.5t-28.5 -68.5v-143q0 -41 28.5 -69t68.5 -28z" />
    <glyph glyph-name="atilde" unicode="&#xe3;" horiz-adv-x="466" 
d="M339 684q15 0 23.5 -12t8.5 -28q0 -26 -19 -47.5t-49 -21.5q-26 0 -60 22l-49 32q-7 4 -14 4q-12 0 -10 -12q3 -14 -5 -26q-9 -12 -23 -12q-15 0 -23.5 12t-8.5 28q0 27 19 48t49 21q27 0 61 -21q5 -3 22.5 -14.5t27.5 -17.5q8 -4 13 -4q11 0 9 12q-3 15 6 27q8 10 22 10
zM360 474q15 0 25.5 -10.5t10.5 -24.5v-409q0 -15 -10.5 -25.5t-25.5 -10.5q-14 0 -24.5 10.5t-10.5 25.5v2q-45 -38 -97 -38q-70 0 -119 49.5t-49 119.5v143q0 70 49 119t119 49q54 0 97 -37v2q0 14 10.5 24.5t24.5 10.5zM228 66q41 0 69 22.5t28 61.5v168q0 39 -28 62
t-69 23q-40 0 -68.5 -28.5t-28.5 -68.5v-143q0 -41 28.5 -69t68.5 -28z" />
    <glyph glyph-name="adieresis" unicode="&#xe4;" horiz-adv-x="466" 
d="M157 690q20 0 35 -14.5t15 -34.5q0 -19 -15 -33.5t-35 -14.5q-19 0 -33 14.5t-14 33.5q0 20 14 34.5t33 14.5zM328 690q20 0 34.5 -15t14.5 -34t-14.5 -33.5t-34.5 -14.5t-34 14.5t-14 33.5q0 20 14.5 34.5t33.5 14.5zM360 474q15 0 25.5 -10.5t10.5 -24.5v-409
q0 -15 -10.5 -25.5t-25.5 -10.5q-14 0 -24.5 10.5t-10.5 25.5v2q-45 -38 -97 -38q-70 0 -119 49.5t-49 119.5v143q0 70 49 119t119 49q54 0 97 -37v2q0 14 10.5 24.5t24.5 10.5zM228 66q41 0 69 22.5t28 61.5v168q0 39 -28 62t-69 23q-40 0 -68.5 -28.5t-28.5 -68.5v-143
q0 -41 28.5 -69t68.5 -28z" />
    <glyph glyph-name="aring" unicode="&#xe5;" horiz-adv-x="466" 
d="M242 542q-38 0 -64.5 26.5t-26.5 64.5t26.5 64.5t64.5 26.5t64.5 -26.5t26.5 -64.5t-26.5 -64.5t-64.5 -26.5zM242 675q-17 0 -29.5 -12.5t-12.5 -29.5q0 -18 12 -30t30 -12t30 12t12 30q0 17 -12.5 29.5t-29.5 12.5zM360 474q15 0 25.5 -10.5t10.5 -24.5v-409
q0 -15 -10.5 -25.5t-25.5 -10.5q-14 0 -24.5 10.5t-10.5 25.5v2q-45 -38 -97 -38q-70 0 -119 49.5t-49 119.5v143q0 70 49 119t119 49q54 0 97 -37v2q0 14 10.5 24.5t24.5 10.5zM228 66q41 0 69 22.5t28 61.5v168q0 39 -28 62t-69 23q-40 0 -68.5 -28.5t-28.5 -68.5v-143
q0 -41 28.5 -69t68.5 -28z" />
    <glyph glyph-name="ae" unicode="&#xe6;" horiz-adv-x="701" 
d="M483 474q70 0 119 -49.5t49 -120.5v-68q0 -15 -10.5 -25.5t-24.5 -10.5h-230v-37q0 -40 28.5 -68.5t68.5 -28.5q28 0 52 15t36 41q6 13 20 18t27 -1t18.5 -20t-0.5 -27q-21 -44 -62.5 -71t-90.5 -27q-95 0 -134 84q-34 -48 -69 -66t-78 -18q-72 0 -115 41q-42 39 -42 105
q0 33 13 61q30 59 112 73q21 3 44.5 5.5t35 3.5t23 3t19.5 5q22 7 22 28q-4 45 -27.5 64.5t-72.5 19.5q-33 0 -52.5 -15.5t-24.5 -33.5q-4 -14 -17 -21t-27 -3t-21.5 16.5t-3.5 26.5q11 42 50 71.5t96 29.5q88 0 141 -60q49 60 128 60zM212 66q44 2 73.5 34t29.5 77v49
q-41 -14 -98 -17q-25 -2 -36 -3t-30 -9.5t-28 -24.5q-7 -14 -7 -31q0 -36 20 -54q21 -21 76 -21zM580 304q0 41 -28.5 70t-68.5 29t-68.5 -28.5t-28.5 -68.5v-35h194v33z" />
    <glyph glyph-name="ccedilla" unicode="&#xe7;" horiz-adv-x="440" 
d="M212 -89q-18 0 -24.5 14t0.5 30l15 41q-61 8 -102 56t-41 112v140q0 70 49 120t119 50q62 0 109.5 -41.5t56.5 -101.5q2 -15 -6.5 -27t-22.5 -14q-15 -2 -27 6.5t-14 23.5q-6 36 -33 59.5t-63 23.5q-40 0 -68.5 -29t-28.5 -70v-140q0 -41 28.5 -70t68.5 -29q36 0 63 23.5
t33 59.5q2 15 14 23.5t27 6.5q14 -2 22.5 -14.5t6.5 -26.5q-8 -51 -43.5 -88.5t-83.5 -49.5l-18 -45q33 -2 62 -27t29 -78q0 -48 -33.5 -81.5t-80.5 -33.5q-49 0 -82 28t-33 74q0 19 14 26.5t28 -0.5t14 -26q0 -22 16.5 -33.5t42.5 -11.5q23 0 40 17.5t17 40.5
q0 26 -17.5 44t-53.5 18z" />
    <glyph glyph-name="egrave" unicode="&#xe8;" horiz-adv-x="447" 
d="M229 474q69 0 118.5 -50t49.5 -120v-69q0 -14 -10.5 -24.5t-25.5 -10.5h-229v-38q0 -40 28.5 -68.5t68.5 -28.5q28 0 52 15.5t35 40.5q7 14 20.5 19t27.5 -1q13 -7 18 -21t-1 -27q-20 -44 -61.5 -70.5t-90.5 -26.5q-70 0 -119.5 49t-49.5 119v144q0 69 49.5 118.5
t119.5 49.5zM132 306v-35h193v35q0 40 -28 68.5t-68 28.5t-68.5 -28.5t-28.5 -68.5zM332 587q-6 -13 -20.5 -18t-27.5 2l-145 71q-13 7 -18 20.5t2 27.5q7 13 21 17.5t27 -2.5l145 -70q13 -7 18 -21t-2 -27z" />
    <glyph glyph-name="eacute" unicode="&#xe9;" horiz-adv-x="447" 
d="M229 474q69 0 118.5 -50t49.5 -120v-69q0 -14 -10.5 -24.5t-25.5 -10.5h-229v-38q0 -40 28.5 -68.5t68.5 -28.5q28 0 52 15.5t35 40.5q7 14 20.5 19t27.5 -1q13 -7 18 -21t-1 -27q-20 -44 -61.5 -70.5t-90.5 -26.5q-70 0 -119.5 49t-49.5 119v144q0 69 49.5 118.5
t119.5 49.5zM132 306v-35h193v35q0 40 -28 68.5t-68 28.5t-68.5 -28.5t-28.5 -68.5zM123 583q-7 13 -2 27t18 21l145 70q13 7 27 2.5t21 -17.5q7 -14 2 -27.5t-18 -20.5l-145 -71q-13 -7 -27.5 -2t-20.5 18z" />
    <glyph glyph-name="ecircumflex" unicode="&#xea;" horiz-adv-x="447" 
d="M229 474q69 0 118.5 -50t49.5 -120v-69q0 -14 -10.5 -24.5t-25.5 -10.5h-229v-38q0 -40 28.5 -68.5t68.5 -28.5q28 0 52 15.5t35 40.5q7 14 20.5 19t27.5 -1q13 -7 18 -21t-1 -27q-20 -44 -61.5 -70.5t-90.5 -26.5q-70 0 -119.5 49t-49.5 119v144q0 69 49.5 118.5
t119.5 49.5zM132 306v-35h193v35q0 40 -28 68.5t-68 28.5t-68.5 -28.5t-28.5 -68.5zM115 613l91 80q10 8 23 8t24 -8l91 -80q19 -17 9 -40t-33 -23q-13 0 -23 9l-68 59l-67 -59q-10 -9 -24 -9q-24 0 -32.5 24t9.5 39z" />
    <glyph glyph-name="edieresis" unicode="&#xeb;" horiz-adv-x="447" 
d="M229 474q69 0 118.5 -50t49.5 -120v-69q0 -14 -10.5 -24.5t-25.5 -10.5h-229v-38q0 -40 28.5 -68.5t68.5 -28.5q28 0 52 15.5t35 40.5q7 14 20.5 19t27.5 -1q13 -7 18 -21t-1 -27q-20 -44 -61.5 -70.5t-90.5 -26.5q-70 0 -119.5 49t-49.5 119v144q0 69 49.5 118.5
t119.5 49.5zM132 306v-35h193v35q0 40 -28 68.5t-68 28.5t-68.5 -28.5t-28.5 -68.5zM144 690q19 0 33 -14t14 -33t-14 -32.5t-33 -13.5t-32.5 13.5t-13.5 32.5t13.5 33t32.5 14zM308 690q19 0 33 -14t14 -33t-14 -32.5t-33 -13.5t-32.5 13.5t-13.5 32.5t13.5 33t32.5 14z
" />
    <glyph glyph-name="igrave" unicode="&#xec;" horiz-adv-x="262" 
d="M133 474q14 0 24.5 -10.5t10.5 -25.5v-408q0 -15 -10.5 -25.5t-24.5 -10.5q-15 0 -25.5 10.5t-10.5 25.5v408q0 15 10.5 25.5t25.5 10.5zM223 589q-6 -12 -19 -16.5t-26 1.5l-136 67q-12 6 -16.5 19t1.5 26q7 11 20 15.5t25 -1.5l136 -66q13 -6 17 -19.5t-2 -25.5z" />
    <glyph glyph-name="iacute" unicode="&#xed;" horiz-adv-x="262" 
d="M136 474q14 0 24.5 -10.5t10.5 -25.5v-408q0 -15 -10.5 -25.5t-24.5 -10.5q-15 0 -25.5 10.5t-10.5 25.5v408q0 15 10.5 25.5t25.5 10.5zM30 595q-7 12 -2.5 25.5t17.5 20.5l139 67q13 7 26.5 2.5t19.5 -16.5q7 -13 2 -26.5t-17 -19.5l-139 -68q-14 -7 -27.5 -2.5
t-18.5 17.5z" />
    <glyph glyph-name="icircumflex" unicode="&#xee;" horiz-adv-x="262" 
d="M130 474q14 0 24.5 -10.5t10.5 -25.5v-408q0 -15 -10.5 -25.5t-24.5 -10.5q-15 0 -25.5 10.5t-10.5 25.5v408q0 15 10.5 25.5t25.5 10.5zM22 634l86 76q10 8 22 8t23 -8l86 -76q18 -15 9 -37t-31 -22q-14 0 -22 8l-65 56l-64 -56q-8 -8 -22 -8q-24 0 -31.5 22.5t9.5 36.5
z" />
    <glyph glyph-name="idieresis" unicode="&#xef;" horiz-adv-x="262" 
d="M131 474q14 0 24.5 -10.5t10.5 -25.5v-408q0 -15 -10.5 -25.5t-24.5 -10.5q-15 0 -25.5 10.5t-10.5 25.5v408q0 15 10.5 25.5t25.5 10.5zM50 705q19 0 33 -13.5t14 -32.5q0 -18 -14 -31.5t-33 -13.5q-18 0 -31 13.5t-13 31.5q0 19 13 32.5t31 13.5zM213 705
q19 0 32.5 -13.5t13.5 -32.5q0 -18 -13.5 -31.5t-32.5 -13.5q-18 0 -31.5 13.5t-13.5 31.5q0 19 13.5 32.5t31.5 13.5z" />
    <glyph glyph-name="eth" unicode="&#xf0;" horiz-adv-x="451" 
d="M228 -6q-70 0 -119 49.5t-49 119.5v125q0 87 68 132.5t138 16.5l-64 108l-38 -23q-10 -7 -21 -4.5t-16 11.5q-6 9 -4 20t12 17l40 24l-46 77q-6 12 -2.5 26.5t15.5 22.5q33 14 49 -15l43 -76l41 25q9 7 19.5 4.5t16.5 -11.5t3.5 -20t-10.5 -16l-44 -27l85 -146
q51 -82 51 -146v-125q0 -70 -49 -119.5t-119 -49.5zM325 288q0 36 -20 61t-48.5 31t-57 0t-48.5 -31t-20 -61v-125q0 -40 28.5 -68.5t68.5 -28.5t68.5 28t28.5 69v125z" />
    <glyph glyph-name="ntilde" unicode="&#xf1;" horiz-adv-x="466" 
d="M238 474q70 0 119 -49t49 -119v-277q0 -14 -10.5 -24.5t-24.5 -10.5q-15 0 -25.5 10.5t-10.5 24.5v277q0 40 -28.5 68.5t-68.5 28.5q-41 0 -69 -23t-28 -62v-289q0 -14 -10.5 -24.5t-24.5 -10.5q-15 0 -25.5 10.5t-10.5 24.5v410q0 14 10.5 24.5t25.5 10.5
q14 0 24.5 -10.5t10.5 -24.5v-2q37 37 97 37zM339 705q15 0 23.5 -12t8.5 -28q0 -26 -19 -47.5t-49 -21.5q-26 0 -60 22l-49 32q-7 4 -14 4q-12 0 -10 -12q3 -14 -5 -26q-9 -12 -23 -12q-15 0 -23.5 12t-8.5 28q0 27 19 48t49 21q27 0 61 -21q5 -3 22.5 -14.5t27.5 -17.5
q8 -4 13 -4q11 0 9 12q-3 15 6 27q8 10 22 10z" />
    <glyph glyph-name="ograve" unicode="&#xf2;" horiz-adv-x="456" 
d="M228 -6q-70 0 -119 49.5t-49 119.5v143q0 70 49 119t119 49t119 -49t49 -119v-143q0 -70 -49 -119.5t-119 -49.5zM228 403q-40 0 -68.5 -28.5t-28.5 -68.5v-143q0 -40 28.5 -68.5t68.5 -28.5t68.5 28t28.5 69v143q0 40 -28.5 68.5t-68.5 28.5zM331 589q-6 -13 -20.5 -18
t-27.5 2l-145 71q-13 7 -18 20.5t2 27.5q7 13 21 17.5t27 -2.5l145 -70q13 -7 18 -21t-2 -27z" />
    <glyph glyph-name="oacute" unicode="&#xf3;" horiz-adv-x="456" 
d="M228 -6q-70 0 -119 49.5t-49 119.5v143q0 70 49 119t119 49t119 -49t49 -119v-143q0 -70 -49 -119.5t-119 -49.5zM228 403q-40 0 -68.5 -28.5t-28.5 -68.5v-143q0 -40 28.5 -68.5t68.5 -28.5t68.5 28t28.5 69v143q0 40 -28.5 68.5t-68.5 28.5zM124 588q-7 13 -2 27t18 21
l145 70q13 7 27 2.5t21 -17.5q7 -14 2 -27.5t-18 -20.5l-145 -71q-13 -7 -27.5 -2t-20.5 18z" />
    <glyph glyph-name="ocircumflex" unicode="&#xf4;" horiz-adv-x="456" 
d="M228 -6q-70 0 -119 49.5t-49 119.5v143q0 70 49 119t119 49t119 -49t49 -119v-143q0 -70 -49 -119.5t-119 -49.5zM228 403q-40 0 -68.5 -28.5t-28.5 -68.5v-143q0 -40 28.5 -68.5t68.5 -28.5t68.5 28t28.5 69v143q0 40 -28.5 68.5t-68.5 28.5zM129 628l81 72q9 7 20 7
q12 0 22 -7l81 -72q17 -14 8.5 -35t-29.5 -21q-10 0 -21 8l-61 53l-59 -53q-11 -8 -22 -8q-22 0 -29 21t9 35z" />
    <glyph glyph-name="otilde" unicode="&#xf5;" horiz-adv-x="456" 
d="M228 -6q70 0 119 49.5t49 119.5v143q0 70 -49 119t-119 49t-119 -49t-49 -119v-143q0 -70 49 -119.5t119 -49.5zM228 403q40 0 68.5 -28.5t28.5 -68.5v-143q0 -41 -28.5 -69t-68.5 -28t-68.5 28.5t-28.5 68.5v143q0 40 28.5 68.5t68.5 28.5zM335 692q15 0 23.5 -12
t8.5 -28q0 -26 -19 -47.5t-49 -21.5q-26 0 -60 22l-49 32q-7 4 -14 4q-12 0 -10 -12q3 -14 -5 -26q-9 -12 -23 -12q-15 0 -23.5 12t-8.5 28q0 27 19 48t49 21q27 0 61 -21q5 -3 22 -14.5t28 -17.5q8 -4 13 -4q11 0 9 12q-3 15 6 27q8 10 22 10z" />
    <glyph glyph-name="odieresis" unicode="&#xf6;" horiz-adv-x="456" 
d="M228 -6q-70 0 -119 49.5t-49 119.5v143q0 70 49 119t119 49t119 -49t49 -119v-143q0 -70 -49 -119.5t-119 -49.5zM228 403q-40 0 -68.5 -28.5t-28.5 -68.5v-143q0 -40 28.5 -68.5t68.5 -28.5t68.5 28t28.5 69v143q0 40 -28.5 68.5t-68.5 28.5zM146 713q19 0 32.5 -13.5
t13.5 -32.5q0 -18 -13.5 -31t-32.5 -13q-18 0 -31 13t-13 31q0 19 13 32.5t31 13.5zM306 713q19 0 32.5 -13.5t13.5 -32.5q0 -18 -13.5 -31t-32.5 -13q-18 0 -31 13t-13 31q0 19 13 32.5t31 13.5z" />
    <glyph glyph-name="divide" unicode="&#xf7;" horiz-adv-x="411" 
d="M209 222q23 0 40 -17t17 -40q0 -22 -17 -38.5t-40 -16.5t-39 16t-16 39t16.5 40t38.5 17zM209 526q23 0 40 -17t17 -40q0 -22 -17 -38.5t-40 -16.5t-39 16t-16 39t16.5 40t38.5 17zM374 317q0 -14 -10.5 -24.5t-25.5 -10.5h-259q-15 0 -25.5 10.5t-10.5 24.5
q0 15 10.5 25.5t25.5 10.5h259q15 0 25.5 -10.5t10.5 -25.5z" />
    <glyph glyph-name="oslash" unicode="&#xf8;" horiz-adv-x="456" 
d="M392 481l-34 -68q38 -47 38 -107v-144q0 -69 -49 -118.5t-119 -49.5q-39 0 -73 17l-28 -55q-10 -20 -32 -20q-6 0 -16 4q-13 7 -17.5 21t2.5 27l34 68q-38 46 -38 106v144q0 70 49 119t119 49q38 0 73 -16l28 55q7 13 20.5 17.5t26.5 -2.5t18 -20.5t-2 -26.5zM131 162
q0 -15 5 -30l133 262q-19 9 -41 9q-40 0 -68.5 -28.5t-28.5 -68.5v-144zM325 306q0 14 -5 31l-133 -262q19 -9 41 -9q40 0 68.5 28t28.5 68v144z" />
    <glyph glyph-name="ugrave" unicode="&#xf9;" horiz-adv-x="461" 
d="M228 -6q-70 0 -119 49t-49 119v277q0 14 10.5 24.5t24.5 10.5q15 0 25.5 -10.5t10.5 -24.5v-277q0 -40 28.5 -68.5t68.5 -28.5q41 0 69 23t28 62v289q0 14 10.5 24.5t24.5 10.5q15 0 25.5 -10.5t10.5 -24.5v-410q0 -14 -10.5 -24.5t-25.5 -10.5q-14 0 -24.5 10.5
t-10.5 24.5v2q-43 -37 -97 -37zM332 598q-6 -13 -20.5 -18t-27.5 2l-145 71q-13 7 -18 20.5t2 27.5q7 13 21 17.5t27 -2.5l145 -70q13 -7 18 -21t-2 -27z" />
    <glyph glyph-name="uacute" unicode="&#xfa;" horiz-adv-x="461" 
d="M228 -6q-70 0 -119 49t-49 119v277q0 14 10.5 24.5t24.5 10.5q15 0 25.5 -10.5t10.5 -24.5v-277q0 -40 28.5 -68.5t68.5 -28.5q41 0 69 23t28 62v289q0 14 10.5 24.5t24.5 10.5q15 0 25.5 -10.5t10.5 -24.5v-410q0 -14 -10.5 -24.5t-25.5 -10.5q-14 0 -24.5 10.5
t-10.5 24.5v2q-43 -37 -97 -37zM123 597q-7 13 -2 27t18 21l145 70q13 7 27 2.5t21 -17.5q7 -14 2 -27.5t-18 -20.5l-145 -71q-13 -7 -27.5 -2t-20.5 18z" />
    <glyph glyph-name="ucircumflex" unicode="&#xfb;" horiz-adv-x="461" 
d="M228 -6q-70 0 -119 49t-49 119v277q0 14 10.5 24.5t24.5 10.5q15 0 25.5 -10.5t10.5 -24.5v-277q0 -40 28.5 -68.5t68.5 -28.5q41 0 69 23t28 62v289q0 14 10.5 24.5t24.5 10.5q15 0 25.5 -10.5t10.5 -24.5v-410q0 -14 -10.5 -24.5t-25.5 -10.5q-14 0 -24.5 10.5
t-10.5 24.5v2q-43 -37 -97 -37zM123 645l85 75q11 7 22 7q12 0 22 -7l85 -75q18 -16 9 -37.5t-31 -21.5q-11 0 -21 8l-64 55l-63 -55q-10 -8 -22 -8q-23 0 -30.5 22.5t8.5 36.5z" />
    <glyph glyph-name="udieresis" unicode="&#xfc;" horiz-adv-x="461" 
d="M228 -6q-70 0 -119 49t-49 119v277q0 14 10.5 24.5t24.5 10.5q15 0 25.5 -10.5t10.5 -24.5v-277q0 -40 28.5 -68.5t68.5 -28.5q41 0 69 23t28 62v289q0 14 10.5 24.5t24.5 10.5q15 0 25.5 -10.5t10.5 -24.5v-410q0 -14 -10.5 -24.5t-25.5 -10.5q-14 0 -24.5 10.5
t-10.5 24.5v2q-43 -37 -97 -37zM148 722q20 0 34 -14t14 -34q0 -19 -14.5 -33t-33.5 -14t-33 14t-14 33t14 33.5t33 14.5zM315 722q20 0 34.5 -14.5t14.5 -33.5t-14.5 -33t-34.5 -14q-19 0 -32.5 14t-13.5 33q0 20 13.5 34t32.5 14z" />
    <glyph glyph-name="yacute" unicode="&#xfd;" horiz-adv-x="472" 
d="M361 474q15 0 25.5 -10.5t10.5 -24.5v-520q0 -70 -49.5 -119.5t-119.5 -49.5q-69 0 -118.5 49.5t-49.5 119.5q0 14 10.5 24.5t25.5 10.5t25.5 -10.5t10.5 -24.5q0 -40 28 -68.5t68 -28.5t68.5 28t28.5 69v112q-42 -37 -97 -37q-69 0 -118.5 49t-49.5 119v277
q0 14 10.5 24.5t25.5 10.5t25.5 -10.5t10.5 -24.5v-277q0 -40 28 -68.5t68 -28.5q42 0 69.5 23t27.5 62v289q0 14 10.5 24.5t25.5 10.5zM143 597q-7 13 -2 27t18 21l145 70q13 7 27 2.5t21 -17.5q7 -14 2 -27.5t-18 -20.5l-145 -71q-13 -7 -27.5 -2t-20.5 18z" />
    <glyph glyph-name="thorn" unicode="&#xfe;" horiz-adv-x="505" 
d="M126 718q14 0 24.5 -10.5t10.5 -24.5v-224q33 43 107 43t125.5 -52t51.5 -125v-154q0 -73 -51.5 -125t-125.5 -52t-107 43v-224q0 -14 -10.5 -24.5t-24.5 -10.5q-15 0 -25.5 10.5t-10.5 24.5v870q0 14 10.5 24.5t25.5 10.5zM161 325v-154q0 -51 30 -78.5t77 -27.5
q44 0 75 31.5t31 74.5v154q0 44 -31 75t-75 31q-47 0 -77 -27.5t-30 -78.5z" />
    <glyph glyph-name="ydieresis" unicode="&#xff;" horiz-adv-x="472" 
d="M361 474q15 0 25.5 -10.5t10.5 -24.5v-520q0 -70 -49.5 -119.5t-119.5 -49.5q-69 0 -118.5 49.5t-49.5 119.5q0 14 10.5 24.5t25.5 10.5t25.5 -10.5t10.5 -24.5q0 -40 28 -68.5t68 -28.5t68.5 28t28.5 69v112q-42 -37 -97 -37q-69 0 -118.5 49t-49.5 119v277
q0 14 10.5 24.5t25.5 10.5t25.5 -10.5t10.5 -24.5v-277q0 -40 28 -68.5t68 -28.5q42 0 69.5 23t27.5 62v289q0 14 10.5 24.5t25.5 10.5zM155 723q19 0 33 -14t14 -33q0 -18 -14 -31.5t-33 -13.5q-18 0 -31.5 13.5t-13.5 31.5q0 19 13.5 33t31.5 14zM318 723q19 0 33 -14
t14 -33q0 -18 -14 -31.5t-33 -13.5q-18 0 -31.5 13.5t-13.5 31.5q0 19 13.5 33t31.5 14z" />
    <glyph glyph-name="OE" unicode="&#x152;" horiz-adv-x="786" 
d="M721 71q14 0 24.5 -10.5t10.5 -25.5q0 -14 -10.5 -24.5t-24.5 -10.5h-288q-15 0 -25.5 10.5t-10.5 24.5v11q-64 -53 -128 -53q-82 0 -140.5 58.5t-58.5 140.5v326q0 82 58 140.5t141 58.5q66 0 128 -53v12q0 15 10.5 25.5t25.5 10.5h285q14 0 24.5 -10.5t10.5 -25.5
t-10.5 -25t-24.5 -10h-250v-223h221q15 0 25.5 -10.5t10.5 -24.5q0 -15 -10.5 -25.5t-25.5 -10.5h-221v-276h253zM269 65q53 0 90.5 36t37.5 88v332q0 53 -37 89t-91 36q-53 0 -90.5 -37.5t-37.5 -90.5v-326q0 -52 37.5 -89.5t90.5 -37.5z" />
    <glyph glyph-name="oe" unicode="&#x153;" horiz-adv-x="711" 
d="M493 474q70 0 119 -49t49 -119v-2v-68q0 -15 -10.5 -25.5t-24.5 -10.5h-229v-37q0 -40 28 -68.5t68 -28.5q28 0 52 15t36 41q7 13 20.5 18t26.5 -1t18.5 -20t-0.5 -27q-21 -44 -62.5 -71t-90.5 -27q-80 0 -132 65q-52 -65 -133 -65q-69 0 -118.5 49.5t-49.5 119.5v143
q0 70 49.5 119t118.5 49q83 0 133 -65q50 65 132 65zM228 66q40 0 68.5 28t28.5 69v143q0 40 -28.5 68.5t-68.5 28.5t-68 -28.5t-28 -68.5v-143q0 -40 28 -68.5t68 -28.5zM590 304v2q0 40 -28.5 68.5t-68.5 28.5t-68 -28.5t-28 -68.5v-35h193v33z" />
    <glyph glyph-name="Scaron" unicode="&#x160;" horiz-adv-x="483" 
d="M240 -6q-87 0 -141 54t-54 124q0 15 10.5 25.5t24.5 10.5q15 0 25.5 -10.5t10.5 -25.5q0 -42 33.5 -74.5t90.5 -32.5q58 0 92 29t34 76q0 42 -15 72t-67 62q-115 67 -133 79q-100 69 -100 164q0 78 54.5 124.5t132.5 46.5q79 0 134.5 -51t55.5 -127q0 -15 -10.5 -25.5
t-25.5 -10.5t-25.5 10.5t-10.5 25.5q0 43 -31.5 75t-86.5 32q-56 0 -85.5 -29t-29.5 -70q0 -18 2 -29t17 -32t44 -42q21 -15 133 -80q119 -68 119 -195q0 -80 -59 -128t-139 -48zM367 875l-90 -80q-8 -7 -21 -7t-21 7l-91 80q-17 15 -8 35.5t29 20.5q11 0 21 -8l70 -64
l70 64q10 8 21 8q22 0 29 -21.5t-9 -34.5z" />
    <glyph glyph-name="scaron" unicode="&#x161;" horiz-adv-x="410" 
d="M216 -6q-123 0 -172 96q-7 13 -2 27t18 20q14 7 27.5 2.5t20.5 -17.5q28 -57 108 -57q82 0 82 62q0 27 -20.5 41t-78.5 33q-48 16 -72 27q-82 40 -82 117q0 55 44 92t110 37q56 0 97.5 -26.5t57.5 -72.5q5 -14 -1 -27.5t-20 -18.5t-27.5 1.5t-18.5 20.5q-19 52 -88 52
q-38 0 -62 -19q-21 -16 -21 -39q0 -18 8.5 -29.5t33.5 -23.5q14 -7 69 -25q63 -20 89 -39q54 -38 54 -101q0 -71 -59 -108q-40 -25 -95 -25zM319 643l-90 -80q-8 -7 -21 -7t-21 7l-91 80q-17 15 -8 35.5t29 20.5q11 0 21 -8l70 -64l70 64q10 8 21 8q22 0 29 -21.5t-9 -34.5z
" />
    <glyph glyph-name="Ydieresis" unicode="&#x178;" horiz-adv-x="476" 
d="M144 918q23 0 40 -17t17 -40q0 -22 -17 -38.5t-40 -16.5q-22 0 -38.5 16t-16.5 39t16.5 40t38.5 17zM331 918q23 0 40 -17t17 -40q0 -22 -17 -38.5t-40 -16.5t-39 16t-16 39t16.5 40t38.5 17zM409 718q19 0 30 -16t3 -34l-169 -374v-264q0 -15 -10 -25.5t-25 -10.5
t-25.5 10.5t-10.5 25.5v264l-168 374q-8 17 2 33.5t30 16.5q23 0 33 -21l139 -309l139 309q10 21 32 21z" />
    <glyph glyph-name="Zcaron" unicode="&#x17d;" horiz-adv-x="468" 
d="M398 0h-327q-20 0 -30 17.5t-1 34.5l304 588h-256q-15 0 -25.5 10.5t-10.5 25.5t10.5 25.5t25.5 10.5h314q20 0 30 -17.5t2 -35.5l-304 -587h268q14 0 24.5 -10.5t10.5 -25.5t-10.5 -25.5t-24.5 -10.5zM373 867l-90 -80q-8 -7 -21 -7t-21 7l-91 80q-17 15 -8 35.5
t29 20.5q11 0 21 -8l70 -64l70 64q10 8 21 8q22 0 29 -21.5t-9 -34.5z" />
    <glyph glyph-name="zcaron" unicode="&#x17e;" horiz-adv-x="393" 
d="M322 73q15 0 25.5 -10.5t10.5 -24.5q0 -15 -10.5 -25.5t-25.5 -10.5h-250q-21 0 -32 18q-9 18 1 37l216 342h-183q-15 0 -25.5 10.5t-10.5 24.5q0 15 10.5 25.5t25.5 10.5h247q21 0 32 -19q9 -17 -1 -36l-216 -342h186zM319 642l-90 -80q-8 -7 -21 -7t-21 7l-91 80
q-17 15 -8 35.5t29 20.5q11 0 21 -8l70 -64l70 64q10 8 21 8q22 0 29 -21t-9 -35z" />
    <glyph glyph-name="florin" unicode="&#x192;" horiz-adv-x="306" 
d="M222 468q15 0 25.5 -10.5t10.5 -25.5t-10.5 -25.5t-25.5 -10.5h-53v-378q0 -59 -42 -101t-101 -42q-15 0 -25.5 10.5t-10.5 25.5q0 14 10.5 24.5t25.5 10.5q29 0 50.5 21t21.5 51v378h-38q-15 0 -25.5 10.5t-10.5 25.5t10.5 25.5t25.5 10.5h38v107q0 59 41.5 101
t100.5 42q15 0 25.5 -10.5t10.5 -25.5q0 -14 -10.5 -24.5t-25.5 -10.5q-29 0 -50 -21.5t-21 -50.5v-107h53z" />
    <glyph glyph-name="circumflex" unicode="&#x2c6;" horiz-adv-x="414" 
d="M92 630l91 80q10 8 23 8t24 -8l91 -80q19 -16 9 -39.5t-33 -23.5q-13 0 -23 9l-68 59l-67 -59q-11 -9 -24 -9q-24 0 -32.5 24t9.5 39z" />
    <glyph glyph-name="caron" unicode="&#x2c7;" horiz-adv-x="324" 
d="M265 688l-90 -80q-8 -7 -21 -7t-21 7l-91 80q-17 15 -8 35.5t29 20.5q11 0 21 -8l70 -64l70 64q10 8 21 8q22 0 29 -21t-9 -35z" />
    <glyph glyph-name="ring" unicode="&#x2da;" horiz-adv-x="426" 
d="M211 536q-38 0 -64.5 26.5t-26.5 64.5t26.5 64.5t64.5 26.5t64.5 -26.5t26.5 -64.5t-26.5 -64.5t-64.5 -26.5zM211 663q-15 0 -25.5 -10.5t-10.5 -25.5q0 -16 10.5 -26t25.5 -10t25.5 10t10.5 26q0 15 -10.5 25.5t-25.5 10.5z" />
    <glyph glyph-name="tilde" unicode="&#x2dc;" horiz-adv-x="351" 
d="M274 710q16 0 24 -12t8 -28q0 -26 -19 -47.5t-49 -21.5q-26 0 -60 22l-49 32q-7 4 -14 4q-11 0 -10 -12q3 -14 -5 -26q-9 -12 -23 -12q-15 0 -23.5 12t-8.5 28q0 27 19 48t49 21q27 0 61 -21q5 -3 22 -14.5t28 -17.5q8 -4 13 -4q11 0 9 12q-3 15 6 27q8 10 22 10z" />
    <glyph glyph-name="hungarumlaut" unicode="&#x2dd;" horiz-adv-x="460" 
 />
    <glyph glyph-name="endash" unicode="&#x2013;" horiz-adv-x="545" 
d="M505 242q0 -14 -10.5 -24.5t-25.5 -10.5h-393q-15 0 -25.5 10.5t-10.5 24.5q0 15 10.5 25.5t25.5 10.5h393q15 0 25.5 -10.5t10.5 -25.5z" />
    <glyph glyph-name="emdash" unicode="&#x2014;" horiz-adv-x="745" 
d="M705 242q0 -14 -10.5 -24.5t-25.5 -10.5h-593q-15 0 -25.5 10.5t-10.5 24.5q0 15 10.5 25.5t25.5 10.5h593q15 0 25.5 -10.5t10.5 -25.5z" />
    <glyph glyph-name="quoteleft" unicode="&#x2018;" horiz-adv-x="195" 
d="M35 540q0 10 5 22l1 3q1 3 4.5 11t9 21.5t16 39t24.5 58.5q8 23 31 23q18 0 28 -16t3 -34l-35 -89q19 -15 19 -39q0 -23 -15 -39.5t-37 -16.5q-23 0 -38.5 16.5t-15.5 39.5z" />
    <glyph glyph-name="quoteright" unicode="&#x2019;" horiz-adv-x="195" 
d="M160 662q0 -10 -5 -22l-1 -3q-1 -3 -4.5 -11t-9 -21.5t-16 -39t-24.5 -58.5q-8 -23 -31 -23q-18 0 -28 16t-3 34l35 89q-19 15 -19 39q0 23 15 39.5t37 16.5q23 0 38.5 -16.5t15.5 -39.5z" />
    <glyph glyph-name="quotesinglbase" unicode="&#x201a;" horiz-adv-x="265" 
d="M195 33q0 -10 -5 -22l-1 -3q-1 -3 -4.5 -11t-9 -21.5t-16 -39t-24.5 -58.5q-8 -23 -31 -23q-18 0 -28 16t-3 34l35 89q-19 15 -19 39q0 23 15 39.5t37 16.5q23 0 38.5 -16.5t15.5 -39.5z" />
    <glyph glyph-name="quotedblleft" unicode="&#x201c;" horiz-adv-x="363" 
d="M40 540q0 10 5 22l1 3q1 3 4.5 11t9 21.5t16 39t24.5 58.5q8 23 31 23q18 0 28 -16t3 -34l-35 -89q19 -15 19 -39q0 -23 -15 -39.5t-37 -16.5q-23 0 -38.5 16.5t-15.5 39.5zM198 540q0 10 5 22l1 3q1 3 4.5 11t9 21.5t16 39t24.5 58.5q8 23 31 23q18 0 28 -16t3 -34
l-35 -89q19 -15 19 -39q0 -23 -15 -39.5t-37 -16.5q-23 0 -38.5 16.5t-15.5 39.5z" />
    <glyph glyph-name="quotedblright" unicode="&#x201d;" horiz-adv-x="363" 
d="M323 662q0 -10 -5 -22l-1 -3q-1 -3 -4.5 -11t-9 -21.5t-16 -39t-24.5 -58.5q-8 -23 -31 -23q-18 0 -28 16t-3 34l35 89q-19 15 -19 39q0 23 15 39.5t37 16.5q23 0 38.5 -16.5t15.5 -39.5zM165 662q0 -10 -5 -22l-1 -3q-1 -3 -4.5 -11t-9 -21.5t-16 -39t-24.5 -58.5
q-8 -23 -31 -23q-18 0 -28 16t-3 34l35 89q-19 15 -19 39q0 23 15 39.5t37 16.5q23 0 38.5 -16.5t15.5 -39.5z" />
    <glyph glyph-name="quotedblbase" unicode="&#x201e;" horiz-adv-x="423" 
d="M353 33q0 -10 -5 -22l-1 -3q-1 -3 -4.5 -11t-9 -21.5t-16 -39t-24.5 -58.5q-8 -23 -31 -23q-18 0 -28 16t-3 34l35 89q-19 15 -19 39q0 23 15 39.5t37 16.5q23 0 38.5 -16.5t15.5 -39.5zM195 33q0 -10 -5 -22l-1 -3q-1 -3 -4.5 -11t-9 -21.5t-16 -39t-24.5 -58.5
q-8 -23 -31 -23q-18 0 -28 16t-3 34l35 89q-19 15 -19 39q0 23 15 39.5t37 16.5q23 0 38.5 -16.5t15.5 -39.5z" />
    <glyph glyph-name="dagger" unicode="&#x2020;" horiz-adv-x="420" 
d="M339 467q22 0 31 -17.5t0 -35.5t-31 -18h-94v-366q0 -15 -10.5 -25.5t-24.5 -10.5q-15 0 -25.5 10.5t-10.5 25.5v366h-94q-15 0 -25 10.5t-10 25.5q0 14 10 24.5t25 10.5h94v215q0 15 10.5 25.5t25.5 10.5q14 0 24.5 -10.5t10.5 -25.5v-215h94z" />
    <glyph glyph-name="daggerdbl" unicode="&#x2021;" horiz-adv-x="421" 
d="M340 273q15 0 25.5 -10.5t10.5 -25.5t-10.5 -25.5t-25.5 -10.5h-94v-171q0 -15 -10.5 -25.5t-24.5 -10.5q-15 0 -25.5 10.5t-10.5 25.5v171h-94q-15 0 -25.5 10.5t-10.5 25.5t10.5 25.5t25.5 10.5h94v124h-94q-15 0 -25.5 10.5t-10.5 25.5q0 14 10.5 24.5t25.5 10.5h94
v214q0 15 10.5 25.5t25.5 10.5q14 0 24.5 -10.5t10.5 -25.5v-214h94q15 0 25.5 -10.5t10.5 -24.5q0 -15 -10.5 -25.5t-25.5 -10.5h-94v-124h94z" />
    <glyph glyph-name="bullet" unicode="&#x2022;" horiz-adv-x="317" 
d="M60 267q0 41 28.5 70t69.5 29t70 -29t29 -70t-29 -69.5t-70 -28.5t-69.5 28.5t-28.5 69.5z" />
    <glyph glyph-name="ellipsis" unicode="&#x2026;" horiz-adv-x="546" 
d="M459 106q23 0 40 -17t17 -40q0 -22 -17 -38.5t-40 -16.5t-39 16t-16 39t16.5 40t38.5 17zM85 106q23 0 40 -17t17 -40q0 -22 -17 -38.5t-40 -16.5t-39 16t-16 39t16.5 40t38.5 17zM272 106q23 0 40 -17t17 -40q0 -22 -17 -38.5t-40 -16.5q-22 0 -38.5 16t-16.5 39
t16.5 40t38.5 17z" />
    <glyph glyph-name="perthousand" unicode="&#x2030;" horiz-adv-x="965" 
d="M493 718q19 0 30 -16.5t2 -35.5l-330 -652q-9 -20 -32 -20q-19 0 -30 16.5t-2 35.5l330 652q9 20 32 20zM317 587q0 -55 -38.5 -93.5t-92.5 -38.5t-92.5 38.5t-38.5 93.5q0 54 38.5 92.5t92.5 38.5t92.5 -38.5t38.5 -92.5zM126 587q0 -25 17.5 -42.5t42.5 -17.5
t42.5 17.5t17.5 42.5t-17.5 42.5t-42.5 17.5t-42.5 -17.5t-17.5 -42.5zM779 256q54 0 92.5 -38t38.5 -93q0 -54 -38.5 -92.5t-92.5 -38.5t-92.5 38.5t-38.5 92.5q0 55 38.5 93t92.5 38zM779 65q25 0 42.5 17.5t17.5 42.5t-17.5 42.5t-42.5 17.5t-42.5 -17.5t-17.5 -42.5
t17.5 -42.5t42.5 -17.5zM470 256q54 0 92.5 -38t38.5 -93q0 -54 -38.5 -92.5t-92.5 -38.5t-92.5 38.5t-38.5 92.5q0 55 38.5 93t92.5 38zM470 65q25 0 42.5 17.5t17.5 42.5t-17.5 42.5t-42.5 17.5t-42.5 -17.5t-17.5 -42.5t17.5 -42.5t42.5 -17.5z" />
    <glyph glyph-name="guilsinglleft" unicode="&#x2039;" horiz-adv-x="332" 
d="M239 145q-15 0 -25 10l-162 154q-11 9 -11 26q0 16 11 25l162 154q10 10 25 10q24 0 32.5 -23t-8.5 -39l-134 -127l134 -128q18 -17 8 -39.5t-32 -22.5z" />
    <glyph glyph-name="guilsinglright" unicode="&#x203a;" horiz-adv-x="324" 
d="M88 145q-22 0 -32 22.5t8 39.5l134 128l-134 127q-17 16 -8.5 39t32.5 23q15 0 25 -10l162 -154q11 -9 11 -25q0 -17 -11 -26l-162 -154q-10 -10 -25 -10z" />
    <glyph glyph-name="Euro" unicode="&#x20ac;" horiz-adv-x="592" 
d="M509 212q15 -2 24 -13t8 -26q-8 -74 -65 -126.5t-133 -52.5q-83 0 -141 58t-58 141v68h-58q-15 0 -25.5 10.5t-10.5 25.5q0 14 10.5 24.5t25.5 10.5h58v56h-58q-15 0 -25.5 10.5t-10.5 25.5q0 14 10.5 24.5t25.5 10.5h58v60q0 83 58 141t141 58q75 0 133 -51.5t65 -127.5
q2 -14 -7.5 -26t-24.5 -13t-26 8.5t-13 23.5q-5 49 -41.5 82t-85.5 33q-53 0 -90.5 -37.5t-37.5 -90.5v-60h128q15 0 25 -10.5t10 -24.5q0 -15 -10 -25.5t-25 -10.5h-128v-56h128q15 0 25 -10.5t10 -24.5q0 -15 -10 -25.5t-25 -10.5h-128v-68q0 -53 37.5 -90.5t90.5 -37.5
q49 0 85.5 33t41.5 82q2 15 13 24t26 8z" />
    <glyph glyph-name="trademark" unicode="&#x2122;" horiz-adv-x="548" 
d="M481 717q10 -1 16 -9t6 -18v-281q0 -11 -8 -19t-19 -8t-19.5 8t-8.5 19v141l-47 -116q-7 -17 -25 -17t-25 17l-48 116v-141q0 -11 -8 -19t-19 -8t-19 8t-8 19v281q0 10 6 18t16 9q23 5 30 -16l75 -184l74 184q9 21 31 16zM208 718q11 0 19 -8t8 -20q0 -11 -8 -19t-19 -8
h-53v-254q0 -11 -8 -19t-19 -8t-19.5 8t-8.5 19v254h-52q-11 0 -19.5 8t-8.5 19q0 12 8.5 20t19.5 8h160z" />
    <glyph glyph-name="minus" unicode="&#x2212;" horiz-adv-x="431" 
d="M381 242q0 -14 -10.5 -24.5t-25.5 -10.5h-259q-15 0 -25.5 10.5t-10.5 24.5q0 15 10.5 25.5t25.5 10.5h259q15 0 25.5 -10.5t10.5 -25.5z" />
    <glyph glyph-name="_0009" horiz-adv-x="886" 
 />
    <glyph glyph-name="Aalternative" horiz-adv-x="519" 
d="M492 46q4 -16 -6.5 -31t-28.5 -15h-395q-17 0 -28.5 14.5t-5.5 31.5l197 647q8 25 35 25q26 0 34 -25zM260 560l-150 -489h300z" />
    <glyph glyph-name="Valternative" horiz-adv-x="527" 
d="M263 -5q-27 0 -34 25l-189 646q-6 18 5 32t29 14h378q18 0 29 -14.5t6 -31.5l-190 -646q-7 -25 -34 -25zM405 641h-284l142 -486z" />
    <glyph glyph-name="Talternative" horiz-adv-x="455" 
d="M399 412q15 0 25.5 -10.5t10.5 -25.5t-10.5 -25.5t-25.5 -10.5h-136v-310q0 -15 -10.5 -25.5t-24.5 -10.5q-15 0 -25.5 10.5t-10.5 25.5v310h-136q-15 0 -25.5 10.5t-10.5 25.5t10.5 25.5t25.5 10.5h136v271q0 14 10.5 24.5t25.5 10.5q14 0 24.5 -10.5t10.5 -24.5v-271
h136z" />
    </font>
</defs>
</svg>
