<svg id="Calque_1" data-name="Calque 1" xmlns="http://www.w3.org/2000/svg" viewBox="0 0 84.1 56.2"><defs><style>.cls-1{fill:#4b4b4b;}</style></defs><title>guillemets_gauche</title><path class="cls-1" d="M48.9,42.4A20.36,20.36,0,0,0,28.5,22C17.2,22,9,30.8,8,42,6.6,59.1,19.6,73.5,35.4,78.1a20.62,20.62,0,0,1-9.8-15.5,26.35,26.35,0,0,0,2.8.2A20.51,20.51,0,0,0,48.9,42.4Z" transform="translate(-7.9 -22)"/><path class="cls-1" d="M92,42.4A20.36,20.36,0,0,0,71.6,22c-11.3,0-19.5,8.8-20.4,20.1C49.7,59.2,62.8,73.6,78.6,78.2a20.62,20.62,0,0,1-9.8-15.5,26.35,26.35,0,0,0,2.8.2A20.57,20.57,0,0,0,92,42.4Z" transform="translate(-7.9 -22)"/></svg>
