<svg id="Calque_1" data-name="Calque 1" xmlns="http://www.w3.org/2000/svg" viewBox="0 0 84.1 56.2"><defs><style>.cls-1{fill:#4b4b4b;}</style></defs><title>guillemets_ferme</title><path class="cls-1" d="M51,57.8A20.36,20.36,0,0,0,71.4,78.2c11.3,0,19.5-8.8,20.5-20,1.4-17.1-11.6-31.5-27.4-36.1a20.62,20.62,0,0,1,9.8,15.5,26.35,26.35,0,0,0-2.8-.2A20.51,20.51,0,0,0,51,57.8Z" transform="translate(-7.9 -22)"/><path class="cls-1" d="M7.9,57.8A20.36,20.36,0,0,0,28.3,78.2c11.3,0,19.5-8.8,20.4-20.1C50.2,41,37.1,26.6,21.3,22a20.62,20.62,0,0,1,9.8,15.5,26.35,26.35,0,0,0-2.8-.2A20.57,20.57,0,0,0,7.9,57.8Z" transform="translate(-7.9 -22)"/></svg>
